<?xml version="1.0" encoding="UTF-8"?>
<!DOCTYPE svg PUBLIC "-//W3C//DTD SVG 1.1//EN" "http://www.w3.org/Graphics/SVG/1.1/DTD/svg11.dtd">
<!-- Creator: CorelDRAW 2021 (64-Bit) -->
<svg xmlns="http://www.w3.org/2000/svg" xml:space="preserve" width="71.3459mm" height="76.0869mm" version="1.1" style="shape-rendering:geometricPrecision; text-rendering:geometricPrecision; image-rendering:optimizeQuality; fill-rule:evenodd; clip-rule:evenodd"
viewBox="0 0 668.39 712.8"
 xmlns:xlink="http://www.w3.org/1999/xlink"
 xmlns:xodm="http://www.corel.com/coreldraw/odm/2003">
 <defs>
  <style type="text/css">
   <![CDATA[
    .fil2 {fill:#829A4B}
    .fil1 {fill:#90C154}
    .fil0 {fill:#3B5D27}
   ]]>
  </style>
 </defs>
 <g id="Ebene_x0020_1">
  <metadata id="CorelCorpID_0Corel-Layer"/>
  <g id="_1870962234624">
   <path class="fil0" d="M339.36 618.91l20.46 7.73c43.53,19.9 80.64,60.46 129.14,67.6 39.1,5.76 70.67,-19.59 99.38,-42.99 12.56,-10.24 34.39,-32.73 46.88,-39.69 -5.9,-26.67 -43.46,-54.61 -69.51,-54.71 4.68,-5.53 13.19,-9.72 18.39,-15.21 27.24,-28.79 40.52,-47.24 53.88,-90.02 7.1,-22.72 12.21,-46.94 16.42,-71.28l10.17 -55.94c1.06,-5.08 3.56,-13.56 3.82,-18.19 -63.51,10.45 -128.46,-10.86 -185.08,29.53 -4.88,3.48 -13.45,12.37 -16.78,14.29 -7.21,-76.43 -25.47,-124.62 -60.03,-188.63 -14.36,-26.59 -31.6,-50.13 -46.49,-76.29 -16.35,-28.72 -26.97,-50.48 -38.44,-85.1 -1.02,1.19 -0.36,0.01 -1.37,2.14 -0.38,0.81 -0.73,2.06 -0.97,2.82 -4.04,12.7 -9.31,25.47 -15.16,37.1 -13.04,25.97 -27.95,50.38 -43.65,74.74 -47.81,74.19 -66.56,134.88 -68.23,227.55 -12.72,-8.29 -21.5,-15.07 -36.7,-20.6 -51.35,-18.67 -101.28,5.66 -144.96,-6.15 -3.28,-0.89 -8.11,-3.15 -10.52,-3.42 11.04,19.35 10.76,46.86 10.04,71.86 -0.77,26.84 -0.98,51.93 5,77.78 8.61,37.21 30.19,64.63 57.32,86.46 3.78,3.04 8.34,5.52 11.81,9.13 -28.94,5.04 -42.27,27.83 -49.98,51.83 -1.68,5.23 -0.35,6.81 3.16,10.77 13.34,15.06 16.14,20.48 33.16,34.64 16.29,13.55 33.51,22.28 55.98,27.47 44.48,10.28 72.94,-2.86 106.57,-21.62 22.08,-12.32 44.39,-25.11 68.01,-34.41l26.51 -8.57 11.77 -0.61z"/>
   <path class="fil1" d="M334.83 616.93l7.86 2.97c16.72,7.65 30.99,23.23 49.62,25.98 15.02,2.21 27.15,-7.53 38.18,-16.52 4.83,-3.93 13.21,-12.58 18.01,-15.25 -2.27,-10.25 -16.7,-20.98 -26.71,-21.02 1.8,-2.13 5.07,-3.74 7.06,-5.85 10.47,-11.06 15.57,-18.15 20.7,-34.59 2.73,-8.73 4.69,-18.03 6.31,-27.39l3.91 -21.5c0.41,-1.95 1.37,-5.21 1.47,-6.99 -24.4,4.01 -49.36,-4.17 -71.11,11.35 -1.88,1.34 -5.17,4.75 -6.45,5.49 -2.77,-29.37 -9.79,-47.89 -23.07,-72.48 -5.52,-10.22 -12.14,-19.26 -17.87,-29.31 -6.28,-11.04 -10.36,-19.4 -14.77,-32.7 -0.39,0.46 -0.14,0 -0.53,0.82 -0.15,0.31 -0.28,0.79 -0.37,1.08 -1.55,4.88 -3.58,9.79 -5.82,14.26 -5.01,9.98 -10.74,19.36 -16.77,28.72 -18.37,28.51 -25.58,51.82 -26.22,87.43 -4.89,-3.19 -8.26,-5.79 -14.1,-7.91 -19.73,-7.17 -38.92,2.17 -55.7,-2.36 -1.26,-0.34 -3.12,-1.21 -4.04,-1.31 4.24,7.44 4.13,18.01 3.86,27.61 -0.3,10.31 -0.38,19.95 1.92,29.89 3.31,14.3 11.6,24.83 22.03,33.22 1.45,1.17 3.21,2.12 4.54,3.51 -11.12,1.94 -16.24,10.69 -19.2,19.91 -0.65,2.01 -0.14,2.62 1.21,4.14 5.13,5.79 6.2,7.87 12.74,13.31 6.26,5.21 12.88,8.56 21.51,10.56 17.09,3.95 28.03,-1.1 40.95,-8.31 8.48,-4.74 17.06,-9.65 26.13,-13.22l10.19 -3.29c3.36,20.2 -2.69,35.77 -2.49,34.72 4.64,-2.61 5.97,0.47 10.21,-2.56 -5.96,-7.88 -4.57,-12.2 -3.2,-32.39z"/>
   <path class="fil2" d="M339.7 616.57c19.76,-6.35 129.63,-94.07 169.83,-150.86 13.65,-19.28 -2.35,-21.67 -13.33,-8.48 -27.7,33.27 -134.73,140.01 -157,138.78l-3.22 -266.3c0,-11.31 -0.34,-22.63 -7.53,-23.2 -6.97,0.87 -5.54,14.53 -5.51,23.99l2.16 267.33c-62.89,-34.76 -109.69,-82.94 -159.1,-144.11 -11.98,-14.82 -27.95,-7.72 -12.04,11.6 51.16,62.1 101.4,115.45 170.85,149.7l-0.68 82.68c-1.05,20.65 17.21,19.4 15.87,0.71l-0.3 -81.84z"/>
   <path class="fil2" d="M96.76 381.61c-4.5,0.8 -7.75,3.81 -7.13,10.24 0.43,4.51 2.79,6.5 5.76,9.36 6.26,6.04 18.71,28.48 26.91,26.47 3.82,-0.94 6.91,-4.66 6.28,-9.8 -1.04,-4.35 -17.74,-25.4 -21.79,-29.1 -2.95,-2.7 -4.36,-8.17 -10.03,-7.17z"/>
   <path class="fil2" d="M323.59 168.37c-8.19,5.39 -5.71,19.23 -5.74,34.19 -0.01,6.44 -0.69,28.47 1.87,33.15 2.28,4.17 6.19,6.48 10.87,3.93 5.78,-3.93 2.22,-36.43 3.32,-49.54 0.01,-6.37 0.71,-12.68 -1.77,-17.37 -1.91,-3.62 -4.07,-7.31 -8.55,-4.36z"/>
   <path class="fil2" d="M563.39 385.13c-3.9,2.68 -18.01,20.47 -21.91,24.7 -7.71,8.34 1.5,20.04 11.02,14.18l21.21 -24.75c8.26,-10.2 -2.86,-19.23 -10.31,-14.12z"/>
  </g>
 </g>
</svg>
