<?xml version="1.0" encoding="UTF-8"?>
<!DOCTYPE svg PUBLIC "-//W3C//DTD SVG 1.1//EN" "http://www.w3.org/Graphics/SVG/1.1/DTD/svg11.dtd">
<!-- Creator: CorelDRAW 2021 (64-Bit) -->
<svg xmlns="http://www.w3.org/2000/svg" xml:space="preserve" width="110.819mm" height="110.819mm" version="1.1" style="shape-rendering:geometricPrecision; text-rendering:geometricPrecision; image-rendering:optimizeQuality; fill-rule:evenodd; clip-rule:evenodd"
viewBox="0 0 2897.62 2897.62"
 xmlns:xlink="http://www.w3.org/1999/xlink"
 xmlns:xodm="http://www.corel.com/coreldraw/odm/2003">
 <defs>
  <style type="text/css">
   <![CDATA[
    .fil0 {fill:#FFF4D8}
    .fil3 {fill:#829A4B}
    .fil2 {fill:#90C154}
    .fil1 {fill:#3B5D27}
   ]]>
  </style>
 </defs>
 <g id="Ebene_x0020_1">
  <metadata id="CorelCorpID_0Corel-Layer"/>
  <circle class="fil0" cx="1448.81" cy="1448.81" r="1448.81"/>
  <g id="_1871155139008">
   <path class="fil1" d="M1478.92 2123.97l57.11 21.58c121.49,55.54 225.07,168.74 360.43,188.68 109.13,16.08 197.24,-54.69 277.36,-119.99 35.05,-28.57 95.99,-91.36 130.84,-110.78 -16.47,-74.43 -121.3,-152.43 -193.99,-152.69 13.07,-15.45 36.8,-27.13 51.32,-42.46 76.04,-80.35 113.08,-131.86 150.39,-251.25 19.81,-63.42 34.08,-131 45.83,-198.95l28.39 -156.14c2.95,-14.18 9.94,-37.86 10.65,-50.76 -177.26,29.16 -358.52,-30.31 -516.55,82.43 -13.63,9.72 -37.54,34.52 -46.84,39.88 -20.11,-213.32 -71.09,-347.83 -167.56,-526.48 -40.07,-74.21 -88.2,-139.93 -129.77,-212.93 -45.65,-80.16 -75.28,-140.9 -107.28,-237.53 -2.84,3.32 -1.01,0.03 -3.83,5.98 -1.07,2.26 -2.03,5.76 -2.7,7.86 -11.28,35.45 -26,71.08 -42.3,103.56 -36.38,72.47 -78,140.6 -121.83,208.6 -133.43,207.07 -185.77,376.44 -190.44,635.1 -35.49,-23.15 -60.01,-42.06 -102.44,-57.49 -143.31,-52.11 -282.67,15.79 -404.59,-17.17 -9.15,-2.47 -22.64,-8.78 -29.36,-9.54 30.82,54.02 30.03,130.8 28.02,200.55 -2.15,74.91 -2.73,144.94 13.96,217.08 24.03,103.84 84.26,180.38 159.99,241.3 10.56,8.5 23.29,15.41 32.95,25.48 -80.76,14.08 -117.99,77.67 -139.49,144.66 -4.69,14.59 -0.99,19 8.82,30.07 37.24,42.04 45.06,57.17 92.56,96.69 45.46,37.82 93.53,62.18 156.25,76.68 124.13,28.7 203.57,-7.97 297.43,-60.35 61.63,-34.39 123.89,-70.08 189.82,-96.04l74 -23.93 32.85 -1.7z"/>
   <path class="fil2" d="M1466.26 2118.44l21.94 8.29c46.68,21.34 86.48,64.83 138.49,72.5 41.93,6.18 75.79,-21.01 106.57,-46.11 13.47,-10.98 36.88,-35.11 50.27,-42.57 -6.33,-28.6 -46.61,-58.57 -74.54,-58.67 5.02,-5.94 14.14,-10.42 19.72,-16.32 29.22,-30.87 43.45,-50.67 57.79,-96.54 7.61,-24.37 13.09,-50.34 17.61,-76.45l10.91 -59.99c1.13,-5.45 3.82,-14.55 4.09,-19.51 -68.11,11.2 -137.76,-11.64 -198.48,31.67 -5.24,3.74 -14.43,13.27 -18,15.32 -7.73,-81.97 -27.32,-133.65 -64.38,-202.3 -15.4,-28.51 -33.89,-53.76 -49.86,-81.82 -17.54,-30.8 -28.93,-54.14 -41.22,-91.27 -1.09,1.27 -0.39,0.01 -1.47,2.3 -0.41,0.87 -0.78,2.21 -1.04,3.02 -4.33,13.62 -9.99,27.31 -16.25,39.79 -13.98,27.84 -29.97,54.02 -46.81,80.15 -51.27,79.57 -71.38,144.64 -73.18,244.03 -13.64,-8.89 -23.06,-16.16 -39.36,-22.09 -55.07,-20.02 -108.62,6.07 -155.46,-6.6 -3.51,-0.95 -8.7,-3.37 -11.28,-3.66 11.84,20.76 11.54,50.26 10.77,77.06 -0.83,28.79 -1.05,55.69 5.37,83.41 9.23,39.9 32.38,69.31 61.48,92.72 4.06,3.26 8.95,5.92 12.66,9.79 -31.03,5.41 -45.34,29.84 -53.6,55.58 -1.8,5.61 -0.38,7.3 3.39,11.55 14.31,16.15 17.31,21.97 35.57,37.15 17.47,14.54 35.94,23.89 60.03,29.47 47.7,11.03 78.22,-3.06 114.28,-23.19 23.68,-13.22 47.6,-26.93 72.94,-36.9l28.43 -9.2c9.37,56.39 -7.52,99.82 -6.95,96.9 12.96,-7.28 16.66,1.32 28.5,-7.15 -16.64,-21.99 -12.75,-34.05 -8.92,-90.4z"/>
   <path class="fil3" d="M1479.87 2117.41c55.14,-17.72 361.79,-262.54 474,-421.05 38.09,-53.8 -6.56,-60.47 -37.2,-23.67 -77.31,92.85 -376.05,390.76 -438.2,387.34l-8.99 -743.26c0,-31.57 -0.95,-63.17 -21.03,-64.75 -19.46,2.43 -15.47,40.55 -15.39,66.97l6.03 746.13c-175.54,-97.03 -306.14,-231.49 -444.06,-402.22 -33.42,-41.38 -78.02,-21.55 -33.6,32.37 142.79,173.33 283.01,322.23 476.85,417.81l-1.89 230.76c-2.93,57.63 48.03,54.14 44.3,1.98l-0.83 -228.42z"/>
   <path class="fil3" d="M801.81 1461.63c-12.56,2.23 -21.62,10.64 -19.9,28.57 1.2,12.58 7.78,18.13 16.08,26.12 17.48,16.86 52.22,79.49 75.09,73.87 10.66,-2.62 19.28,-13 17.53,-27.35 -2.9,-12.15 -49.51,-70.89 -60.82,-81.21 -8.25,-7.53 -12.17,-22.82 -27.99,-20.01z"/>
   <path class="fil3" d="M1434.89 866.47c-22.86,15.05 -15.93,53.67 -16.01,95.42 -0.04,17.96 -1.92,79.46 5.21,92.51 6.36,11.64 17.28,18.09 30.33,10.98 16.13,-10.96 6.2,-101.68 9.28,-138.27 0.03,-17.77 1.98,-35.38 -4.93,-48.47 -5.34,-10.09 -11.35,-20.41 -23.87,-12.17z"/>
   <path class="fil3" d="M2104.19 1471.47c-10.9,7.47 -50.27,57.14 -61.16,68.93 -21.52,23.27 4.18,55.93 30.75,39.58l59.19 -69.09c23.05,-28.48 -7.98,-53.68 -28.79,-39.41z"/>
  </g>
 </g>
</svg>
