<svg xmlns="http://www.w3.org/2000/svg" xmlns:xlink="http://www.w3.org/1999/xlink" width="1775" zoomAndPan="magnify" viewBox="0 0 1331.25 1874.999944" height="2500" preserveAspectRatio="xMidYMid meet" version="1.0"><defs><clipPath id="07c25cbf82"><path d="M 222 1564 L 431 1564 L 431 1874.472656 L 222 1874.472656 Z M 222 1564 " clip-rule="nonzero"/></clipPath><clipPath id="352e8e5728"><path d="M 1181 0.527344 L 1312 0.527344 L 1312 149 L 1181 149 Z M 1181 0.527344 " clip-rule="nonzero"/></clipPath><clipPath id="5902b430bb"><path d="M 1203 78 L 1330.5 78 L 1330.5 156 L 1203 156 Z M 1203 78 " clip-rule="nonzero"/></clipPath></defs><g clip-path="url(#07c25cbf82)"><path fill="#b54915" d="M 429.238281 1865.113281 C 430.003906 1866.832031 431.53125 1869.695312 430.195312 1871.414062 C 428.476562 1873.515625 425.230469 1874.472656 422.554688 1874.28125 C 422.171875 1874.28125 421.597656 1874.28125 421.21875 1874.472656 C 415.488281 1871.988281 410.519531 1867.785156 405.554688 1863.964844 C 376.519531 1841.042969 353.023438 1811.625 333.917969 1780.105469 C 320.738281 1756.609375 311.1875 1731.203125 301.828125 1705.988281 C 292.46875 1680.390625 281.769531 1654.601562 261.332031 1635.691406 C 251.777344 1626.140625 240.316406 1616.207031 226.371094 1614.871094 C 225.035156 1615.0625 223.699219 1615.0625 222.363281 1615.445312 C 222.550781 1613.722656 222.742188 1612.003906 223.125 1610.285156 C 224.460938 1609.140625 225.609375 1607.613281 226.753906 1606.273438 C 226.945312 1606.273438 227.136719 1606.273438 227.328125 1606.273438 C 232.675781 1606.273438 237.644531 1608.566406 242.417969 1611.242188 C 245.855469 1613.152344 249.488281 1615.0625 252.734375 1617.542969 C 261.710938 1622.894531 268.972656 1630.34375 276.421875 1637.601562 C 278.90625 1639.703125 280.050781 1642.949219 282.535156 1645.050781 C 283.105469 1645.242188 283.488281 1645.050781 283.679688 1644.671875 C 284.636719 1644.671875 285.207031 1643.332031 284.253906 1642.570312 C 276.039062 1623.085938 276.996094 1601.308594 273.9375 1580.675781 C 273.554688 1578.195312 273.171875 1575.519531 272.601562 1573.035156 C 273.363281 1572.652344 274.320312 1572.273438 275.082031 1571.699219 C 279.09375 1569.40625 282.914062 1566.921875 286.738281 1564.058594 C 286.164062 1573.609375 286.355469 1583.160156 287.5 1592.710938 C 290.746094 1616.972656 293.421875 1641.421875 300.300781 1664.917969 C 305.839844 1683.828125 313.863281 1702.359375 321.695312 1720.507812 C 328.761719 1736.742188 336.210938 1752.789062 344.808594 1768.070312 C 357.605469 1790.996094 374.035156 1811.625 391.992188 1830.535156 C 400.394531 1838.367188 408.992188 1846.390625 417.777344 1853.839844 C 421.21875 1857.851562 425.800781 1860.910156 429.238281 1865.113281 Z M 429.238281 1865.113281 " fill-opacity="1" fill-rule="nonzero"/></g><path fill="#b54915" d="M 349.011719 1540.5625 C 349.011719 1557.371094 348.820312 1574.183594 347.289062 1590.800781 C 346.527344 1595.960938 346.910156 1601.117188 346.144531 1606.273438 C 345.570312 1609.902344 344.808594 1613.722656 344.234375 1617.734375 C 342.898438 1624.421875 342.515625 1631.679688 340.796875 1638.367188 C 340.414062 1639.703125 339.839844 1640.851562 339.457031 1642.1875 C 336.976562 1636.648438 332.964844 1631.871094 329.90625 1626.714844 C 327.234375 1622.894531 324.367188 1619.265625 321.886719 1615.253906 C 318.636719 1610.09375 314.625 1605.511719 311.761719 1600.160156 C 307.367188 1591.757812 304.691406 1582.398438 303.164062 1572.84375 C 301.0625 1563.484375 301.0625 1554.125 303.355469 1544.765625 C 303.738281 1543.238281 305.074219 1541.328125 303.929688 1539.796875 C 303.355469 1539.226562 302.398438 1538.84375 301.636719 1539.226562 C 300.109375 1539.988281 300.109375 1541.898438 299.726562 1543.425781 C 297.242188 1548.777344 293.230469 1552.789062 289.027344 1557.179688 C 283.488281 1561.957031 276.804688 1566.160156 270.308594 1569.789062 C 266.296875 1571.507812 262.09375 1572.84375 257.890625 1574.375 C 258.65625 1573.609375 259.609375 1572.65625 260.375 1571.699219 C 263.8125 1566.734375 266.871094 1561.574219 271.644531 1557.945312 C 279.667969 1549.730469 289.601562 1543.425781 296.667969 1534.257812 C 299.917969 1529.675781 303.738281 1525.472656 306.222656 1520.3125 C 310.421875 1512.480469 312.714844 1504.269531 315.007812 1495.863281 C 317.109375 1488.605469 317.875 1480.960938 318.636719 1473.511719 C 319.402344 1468.738281 319.402344 1463.960938 318.636719 1459.1875 C 325.324219 1467.019531 333.539062 1473.703125 339.269531 1482.300781 C 346.335938 1492.996094 348.054688 1505.605469 347.671875 1518.210938 C 347.863281 1525.664062 349.011719 1533.113281 349.011719 1540.5625 Z M 349.011719 1540.5625 " fill-opacity="1" fill-rule="nonzero"/><path fill="#b54915" d="M 313.863281 1454.792969 C 316.535156 1465.871094 314.625 1477.140625 313.097656 1488.222656 C 310.042969 1501.976562 306.792969 1516.683594 297.433594 1527.765625 C 287.5 1543.808594 268.78125 1551.832031 259.609375 1568.453125 C 257.890625 1571.125 255.789062 1573.417969 253.5 1575.710938 C 256.171875 1569.980469 256.9375 1563.484375 256.9375 1557.179688 C 257.699219 1545.71875 258.847656 1534.257812 261.140625 1522.988281 C 266.296875 1496.625 289.792969 1469.121094 311.761719 1453.835938 C 311.953125 1454.21875 312.144531 1454.601562 312.523438 1454.792969 C 313.097656 1454.984375 313.480469 1454.984375 313.863281 1454.792969 Z M 313.863281 1454.792969 " fill-opacity="1" fill-rule="nonzero"/><path fill="#b54915" d="M 352.257812 1350.492188 C 353.402344 1361.191406 352.066406 1371.886719 350.15625 1382.585938 C 346.910156 1401.6875 342.132812 1421.554688 328.953125 1436.453125 C 326.46875 1440.082031 323.605469 1443.523438 319.972656 1446.195312 C 319.59375 1446.578125 318.636719 1447.152344 317.683594 1447.726562 C 317.683594 1447.726562 317.492188 1447.726562 317.492188 1447.726562 C 314.816406 1443.140625 314.433594 1437.410156 313.863281 1432.25 C 314.433594 1415.25 322.648438 1399.203125 331.816406 1385.070312 C 338.121094 1373.417969 347.480469 1363.101562 352.257812 1350.492188 Z M 352.257812 1350.492188 " fill-opacity="1" fill-rule="nonzero"/><path fill="#b54915" d="M 502.59375 1378.382812 C 510.234375 1381.058594 517.683594 1385.449219 525.707031 1386.40625 C 516.539062 1387.359375 507.367188 1387.171875 498.199219 1388.316406 C 476.804688 1390.417969 455.21875 1393.855469 435.351562 1402.261719 C 415.675781 1409.902344 398.484375 1421.9375 379.574219 1431.105469 C 362.953125 1439.703125 345 1446.003906 326.660156 1449.253906 C 325.132812 1449.445312 323.414062 1449.445312 321.695312 1449.445312 C 325.515625 1446.578125 328.953125 1443.332031 331.4375 1439.128906 C 348.054688 1419.644531 352.832031 1393.472656 355.503906 1368.640625 C 355.886719 1364.054688 355.695312 1359.28125 355.121094 1354.695312 C 356.84375 1357.371094 358.5625 1359.855469 359.898438 1362.71875 C 362.382812 1370.167969 366.011719 1377.046875 368.113281 1384.496094 C 368.875 1386.789062 369.640625 1389.082031 370.214844 1391.5625 C 371.167969 1394.238281 374.417969 1392.902344 375.5625 1391.179688 C 377.28125 1389.84375 378.429688 1387.933594 380.148438 1386.40625 C 382.25 1385.070312 384.730469 1384.496094 387.214844 1383.730469 C 394.09375 1381.058594 400.777344 1378.765625 408.035156 1377.046875 C 414.53125 1374.753906 421.027344 1372.84375 427.902344 1371.507812 C 438.027344 1368.449219 448.535156 1366.347656 459.230469 1367.113281 C 474.128906 1367.6875 488.648438 1373.226562 502.59375 1378.382812 Z M 502.59375 1378.382812 " fill-opacity="1" fill-rule="nonzero"/><path fill="#b54915" d="M 545.574219 1527.382812 C 553.597656 1553.742188 555.316406 1581.25 558.753906 1608.375 C 551.878906 1590.609375 540.417969 1574.753906 529.144531 1559.472656 C 516.730469 1544 503.167969 1528.910156 487.121094 1517.066406 C 470.121094 1505.222656 452.925781 1493.378906 433.824219 1484.972656 C 424.082031 1481.152344 414.339844 1476.953125 404.023438 1474.660156 C 388.550781 1471.601562 373.078125 1469.308594 357.605469 1466.0625 C 350.347656 1464.34375 328.1875 1459.949219 319.785156 1453.457031 C 330.671875 1453.644531 341.371094 1450.398438 351.683594 1446.769531 C 359.132812 1444.285156 366.773438 1442.183594 373.652344 1438.363281 C 382.4375 1434.351562 390.652344 1429.386719 399.441406 1425.183594 C 411.476562 1418.117188 423.507812 1411.046875 436.5 1405.890625 C 462.667969 1395.191406 491.132812 1391.753906 519.210938 1390.035156 C 521.3125 1389.460938 527.425781 1389.269531 530.675781 1387.933594 C 529.335938 1391.183594 526.851562 1394.046875 524.941406 1396.914062 C 521.121094 1403.40625 516.921875 1409.710938 512.527344 1416.015625 C 508.324219 1420.980469 502.976562 1424.992188 497.4375 1428.242188 C 491.324219 1432.0625 485.402344 1435.308594 478.332031 1437.027344 C 476.996094 1437.410156 475.660156 1437.601562 474.320312 1437.792969 C 472.792969 1438.171875 472.410156 1440.273438 473.75 1441.230469 C 474.511719 1441.804688 475.277344 1441.613281 476.230469 1441.613281 C 479.671875 1441.421875 483.300781 1441.613281 486.738281 1442.566406 C 498.390625 1447.152344 507.941406 1455.9375 516.539062 1464.726562 C 532.585938 1481.726562 539.652344 1505.03125 545.574219 1527.382812 Z M 545.574219 1527.382812 " fill-opacity="1" fill-rule="nonzero"/><path fill="#b54915" d="M 543.855469 1585.835938 C 549.203125 1594.8125 554.550781 1603.980469 558.5625 1613.722656 C 551.6875 1609.902344 544.238281 1608.566406 536.40625 1607.421875 C 525.324219 1605.511719 513.863281 1604.171875 502.59375 1605.320312 C 483.492188 1606.464844 464.578125 1611.8125 445.285156 1611.242188 C 437.261719 1611.050781 429.429688 1610.09375 421.789062 1607.230469 C 416.824219 1605.703125 411.476562 1604.9375 406.890625 1602.644531 C 398.101562 1598.441406 391.609375 1590.609375 383.011719 1585.644531 C 380.71875 1584.878906 379.765625 1587.554688 379.574219 1589.273438 C 378.808594 1592.519531 377.472656 1595.578125 376.328125 1598.632812 C 366.011719 1616.78125 354.742188 1634.546875 341.75 1650.972656 C 341.75 1650.972656 341.558594 1650.972656 341.558594 1650.972656 C 341.558594 1649.636719 341.371094 1648.300781 340.988281 1646.960938 C 341.941406 1643.332031 344.042969 1639.703125 344.617188 1635.882812 C 346.144531 1626.523438 347.480469 1617.164062 349.011719 1607.804688 C 349.964844 1601.117188 349.964844 1593.859375 350.539062 1586.980469 C 350.539062 1586.980469 350.539062 1587.171875 350.539062 1587.171875 C 351.113281 1578.574219 351.683594 1570.171875 351.683594 1561.574219 C 352.066406 1547.628906 352.257812 1533.304688 350.730469 1519.359375 C 350.347656 1509.042969 350.347656 1498.347656 345.953125 1488.792969 C 341.75 1478.863281 334.492188 1470.839844 327.234375 1463.007812 C 326.46875 1462.050781 325.515625 1461.097656 324.75 1460.140625 C 336.785156 1465.488281 354.742188 1468.929688 360.855469 1470.265625 C 375.753906 1473.320312 390.84375 1475.421875 405.746094 1478.671875 C 416.058594 1481.34375 425.992188 1485.738281 435.925781 1489.75 C 450.636719 1497.007812 464.960938 1505.796875 478.332031 1515.347656 C 486.546875 1520.695312 494.1875 1526.617188 501.066406 1533.683594 C 517.492188 1548.96875 531.4375 1566.921875 543.855469 1585.835938 Z M 543.855469 1585.835938 " fill-opacity="1" fill-rule="nonzero"/><path fill="#b54915" d="M 312.714844 1448.488281 C 311.953125 1449.253906 310.996094 1449.824219 310.230469 1450.398438 C 305.074219 1445.625 298.578125 1442.757812 292.65625 1438.9375 C 289.601562 1436.835938 286.164062 1435.308594 284.253906 1431.871094 C 283.679688 1431.105469 283.296875 1428.429688 281.960938 1429.195312 C 281.386719 1430.53125 281.960938 1432.441406 281.578125 1433.972656 C 280.242188 1447.914062 280.816406 1462.625 282.152344 1476.378906 C 276.421875 1483.253906 271.074219 1490.515625 266.871094 1498.347656 C 266.871094 1497.964844 266.871094 1497.582031 267.0625 1497.199219 C 266.679688 1482.300781 266.488281 1467.398438 265.722656 1452.5 C 265.152344 1424.800781 267.824219 1397.292969 271.074219 1369.785156 C 271.835938 1362.335938 273.554688 1354.695312 273.171875 1347.054688 C 275.847656 1348.773438 278.714844 1350.492188 281.769531 1351.640625 C 283.488281 1352.59375 285.398438 1353.359375 287.308594 1354.121094 C 286.546875 1359.089844 285.589844 1364.246094 284.636719 1369.214844 C 283.105469 1378 282.726562 1386.789062 282.152344 1395.574219 C 281.386719 1407.035156 282.914062 1418.878906 289.601562 1428.429688 C 293.613281 1435.117188 298.960938 1440.65625 306.222656 1443.902344 C 307.941406 1445.625 310.230469 1447.152344 312.714844 1448.488281 Z M 312.714844 1448.488281 " fill-opacity="1" fill-rule="nonzero"/><path fill="#b54915" d="M 229.046875 1551.640625 C 230.957031 1559.28125 234.015625 1566.921875 233.058594 1575.136719 C 232.867188 1580.675781 230.574219 1586.027344 229.046875 1591.566406 C 227.136719 1596.914062 225.417969 1603.027344 221.789062 1607.421875 C 219.878906 1604.554688 218.730469 1601.308594 217.96875 1598.058594 C 214.910156 1584.496094 216.820312 1570.171875 217.96875 1556.417969 C 218.730469 1547.820312 223.507812 1540.5625 226.5625 1532.730469 C 226.945312 1539.035156 227.519531 1545.339844 229.046875 1551.640625 Z M 229.046875 1551.640625 " fill-opacity="1" fill-rule="nonzero"/><path fill="#b54915" d="M 225.800781 1530.820312 C 223.507812 1535.976562 220.640625 1541.136719 218.160156 1546.292969 C 215.292969 1553.359375 214.910156 1560.8125 214.339844 1568.261719 C 213.765625 1580.675781 211.855469 1594.238281 217.585938 1605.511719 C 214.910156 1604.171875 212.429688 1602.070312 210.136719 1599.78125 C 203.257812 1594.050781 195.425781 1589.273438 189.125 1582.777344 C 179.570312 1571.890625 169.257812 1561.191406 162.953125 1548.011719 C 158.941406 1540.945312 157.605469 1533.113281 155.121094 1525.472656 C 152.636719 1515.539062 149.390625 1505.605469 149.007812 1495.289062 C 148.816406 1494.714844 148.816406 1493.1875 148.625 1491.660156 C 150.917969 1494.144531 153.785156 1495.863281 156.457031 1497.964844 C 160.277344 1500.636719 163.90625 1504.078125 168.109375 1506.179688 C 179.761719 1511.910156 190.460938 1519.550781 197.910156 1530.246094 C 201.347656 1535.40625 205.742188 1540.371094 206.507812 1546.867188 C 206.507812 1547.820312 206.507812 1549.15625 207.84375 1549.347656 C 208.988281 1549.539062 209.371094 1548.394531 209.5625 1547.4375 C 212.617188 1539.988281 218.730469 1534.257812 225.800781 1530.820312 Z M 225.800781 1530.820312 " fill-opacity="1" fill-rule="nonzero"/><path fill="#b54915" d="M 213 1605.703125 C 210.136719 1605.128906 207.460938 1604.746094 204.597656 1604.363281 C 196.382812 1603.21875 188.359375 1601.5 180.144531 1599.972656 C 173.839844 1598.824219 167.539062 1598.441406 161.425781 1597.105469 C 155.3125 1595.578125 149.390625 1594.238281 143.085938 1593.09375 C 126.085938 1590.039062 108.703125 1588.316406 91.890625 1584.308594 C 72.980469 1580.867188 54.261719 1576.855469 35.730469 1572.082031 C 27.324219 1568.832031 19.113281 1565.394531 10.898438 1561.765625 C 10.707031 1561.765625 10.707031 1561.765625 10.515625 1561.574219 C 29.617188 1561.382812 47.191406 1552.980469 64.765625 1546.484375 C 69.542969 1544.765625 74.316406 1543.808594 79.476562 1543.046875 C 85.589844 1541.707031 91.890625 1540.753906 98.195312 1541.136719 C 104.882812 1540.945312 111.375 1541.707031 117.871094 1542.855469 C 126.660156 1543.617188 135.445312 1545.527344 142.511719 1551.257812 C 144.421875 1551.832031 144.804688 1549.539062 143.277344 1548.777344 C 135.0625 1531.203125 139.265625 1509.425781 146.332031 1491.660156 C 146.523438 1493.761719 146.523438 1495.863281 146.90625 1497.964844 C 147.097656 1505.605469 149.582031 1513.054688 151.109375 1520.503906 C 153.976562 1532.15625 156.839844 1544 163.144531 1554.125 C 167.539062 1562.148438 173.839844 1568.832031 179.761719 1575.902344 C 185.492188 1583.160156 192.179688 1589.65625 199.820312 1595.195312 C 204.40625 1598.632812 208.417969 1602.453125 213 1605.703125 Z M 213 1605.703125 " fill-opacity="1" fill-rule="nonzero"/><path fill="#b54915" d="M 196.957031 1606.082031 C 203.257812 1607.421875 209.753906 1607.613281 215.867188 1609.523438 C 181.863281 1621.367188 168.300781 1644.480469 151.875 1674.660156 C 143.660156 1689.5625 135.445312 1705.226562 120.925781 1715.15625 C 119.972656 1715.921875 118.636719 1716.113281 117.488281 1716.6875 C 116.34375 1701.214844 122.074219 1685.742188 132.390625 1674.089844 C 133.34375 1673.515625 133.917969 1672.175781 132.960938 1671.414062 C 125.511719 1670.265625 117.488281 1670.457031 110.039062 1669.121094 C 103.164062 1667.785156 96.476562 1665.492188 90.171875 1662.246094 C 81.769531 1657.660156 74.507812 1650.78125 67.058594 1644.671875 C 56.550781 1635.5 46.429688 1626.140625 37.832031 1614.871094 C 30.574219 1607.039062 26.753906 1597.296875 22.742188 1587.363281 C 20.832031 1582.96875 18.347656 1578.957031 16.246094 1574.5625 C 14.71875 1571.316406 13 1567.878906 10.898438 1564.824219 C 18.921875 1568.832031 27.136719 1572.652344 35.730469 1575.710938 C 58.082031 1581.441406 81.003906 1584.6875 103.542969 1589.082031 C 117.488281 1591.375 131.433594 1593.285156 145.1875 1595.769531 C 153.59375 1597.105469 161.617188 1599.972656 170.210938 1600.925781 C 179 1602.261719 187.976562 1604.746094 196.957031 1606.082031 Z M 196.957031 1606.082031 " fill-opacity="1" fill-rule="nonzero"/><path fill="#b54915" d="M 216.628906 1611.8125 C 217.011719 1611.625 217.394531 1611.625 217.777344 1611.433594 C 216.441406 1612.769531 215.101562 1614.296875 213.957031 1615.824219 C 209.5625 1624.039062 207.078125 1633.398438 203.449219 1641.996094 C 196.957031 1656.894531 190.84375 1671.988281 186.640625 1687.839844 C 185.300781 1692.042969 184.15625 1696.246094 183.582031 1700.640625 C 180.71875 1693 181.671875 1684.59375 183.011719 1676.570312 C 183.390625 1673.898438 184.347656 1671.414062 184.921875 1668.929688 C 184.921875 1668.355469 184.921875 1667.59375 184.539062 1667.210938 C 183.582031 1666.066406 181.863281 1666.828125 181.480469 1667.976562 C 180.527344 1670.078125 179.382812 1671.988281 178.042969 1674.089844 C 175.941406 1678.289062 172.886719 1681.539062 169.640625 1685.167969 C 161.617188 1694.71875 152.066406 1702.167969 141.175781 1708.089844 C 137.546875 1710 133.535156 1711.148438 129.523438 1712.484375 C 139.265625 1703.695312 145.761719 1691.664062 152.066406 1680.199219 C 168.109375 1650.78125 182.820312 1622.511719 216.628906 1611.8125 Z M 216.628906 1611.8125 " fill-opacity="1" fill-rule="nonzero"/><path fill="#b54915" d="M 218.160156 1614.871094 C 217.96875 1615.824219 217.96875 1616.78125 217.96875 1617.734375 C 217.585938 1624.230469 217.011719 1630.917969 216.441406 1637.601562 C 215.484375 1644.859375 214.53125 1652.3125 212.429688 1659.378906 C 209.371094 1666.636719 206.316406 1674.089844 202.113281 1680.773438 C 197.335938 1688.796875 190.652344 1695.863281 186.257812 1704.078125 C 186.640625 1698.921875 187.785156 1693.953125 189.503906 1689.179688 C 193.132812 1675.617188 197.910156 1662.625 203.640625 1649.828125 C 207.269531 1641.613281 210.136719 1633.019531 213.382812 1624.613281 C 214.148438 1620.792969 215.867188 1617.734375 218.160156 1614.871094 Z M 218.160156 1614.871094 " fill-opacity="1" fill-rule="nonzero"/><path fill="#b54915" d="M 285.972656 1315.726562 C 290.175781 1329.480469 294.378906 1343.808594 304.3125 1354.695312 C 296.097656 1354.503906 288.835938 1351.257812 281.578125 1347.628906 C 277.183594 1345.527344 272.984375 1343.042969 269.351562 1339.605469 C 259.421875 1330.816406 253.308594 1318.59375 245.285156 1308.277344 C 241.464844 1303.5 236.113281 1294.332031 234.015625 1305.792969 C 229.046875 1324.707031 220.640625 1342.660156 210.136719 1359.089844 C 200.585938 1374.753906 187.402344 1387.933594 176.898438 1403.023438 C 168.683594 1412.957031 159.324219 1421.363281 149.964844 1430.339844 C 144.613281 1435.5 139.457031 1441.230469 133.34375 1445.625 C 133.34375 1445.625 133.34375 1445.625 133.152344 1445.625 C 132.960938 1445.625 132.769531 1445.625 132.582031 1445.8125 C 132.582031 1445.8125 132.582031 1445.625 132.582031 1445.625 C 134.679688 1441.992188 135.828125 1437.984375 137.546875 1434.160156 C 139.265625 1430.152344 141.558594 1426.519531 142.894531 1422.320312 C 147.097656 1408.566406 151.875 1394.621094 154.929688 1380.484375 C 161.996094 1347.4375 165.816406 1313.816406 172.695312 1280.769531 C 177.851562 1246.765625 187.023438 1212.765625 205.933594 1183.539062 C 212.621094 1172.839844 219.6875 1161.761719 230.574219 1154.695312 C 231.339844 1153.929688 232.292969 1153.164062 233.058594 1152.59375 C 234.015625 1152.210938 234.777344 1151.828125 235.734375 1151.445312 C 235.542969 1152.402344 235.542969 1153.546875 235.351562 1154.503906 C 234.203125 1167.109375 239.554688 1179.144531 243.566406 1190.988281 C 251.207031 1212.191406 262.667969 1231.675781 268.972656 1253.261719 C 275.65625 1274.085938 280.050781 1295.097656 285.972656 1315.726562 Z M 285.972656 1315.726562 " fill-opacity="1" fill-rule="nonzero"/><path fill="#b54915" d="M 332.964844 1187.359375 C 327.425781 1188.3125 321.695312 1189.460938 316.34375 1191.753906 C 310.804688 1194.234375 304.691406 1196.527344 298.390625 1196.335938 C 296.097656 1196.527344 291.703125 1194.425781 291.511719 1198.054688 C 292.46875 1200.921875 294.949219 1203.214844 296.480469 1205.886719 C 299.535156 1209.898438 301.828125 1214.292969 303.738281 1219.070312 C 306.222656 1229.003906 307.367188 1239.316406 308.132812 1249.441406 C 309.660156 1269.308594 307.75 1288.984375 306.03125 1308.660156 C 304.691406 1322.605469 301.636719 1336.929688 304.3125 1350.875 C 303.929688 1350.300781 303.546875 1349.730469 303.164062 1349.347656 C 300.871094 1346.292969 298.960938 1343.234375 297.433594 1339.796875 C 286.925781 1313.433594 283.296875 1285.164062 274.128906 1258.421875 C 270.882812 1247.914062 267.632812 1237.214844 262.859375 1227.285156 C 256.9375 1215.25 251.96875 1203.214844 247.003906 1190.605469 C 243.183594 1179.335938 238.023438 1167.683594 238.789062 1155.457031 C 239.171875 1155.839844 239.363281 1156.222656 239.746094 1156.605469 C 242.609375 1158.898438 245.285156 1161.570312 247.957031 1164.4375 C 262.09375 1177.042969 280.433594 1184.492188 299.34375 1185.832031 C 306.222656 1186.023438 313.289062 1186.59375 320.164062 1185.449219 C 322.839844 1185.257812 325.707031 1185.832031 328.378906 1186.214844 C 329.90625 1186.402344 331.4375 1186.785156 332.964844 1187.359375 Z M 332.964844 1187.359375 " fill-opacity="1" fill-rule="nonzero"/><path fill="#b54915" d="M 326.851562 1182.964844 C 320.164062 1181.246094 313.097656 1182.582031 306.03125 1182.390625 C 296.480469 1182.011719 286.925781 1180.671875 277.949219 1177.617188 C 272.984375 1175.898438 268.015625 1173.414062 263.429688 1170.550781 C 257.128906 1167.109375 251.589844 1162.90625 246.8125 1157.367188 C 244.710938 1155.839844 242.800781 1154.121094 241.273438 1152.210938 C 249.679688 1154.695312 261.902344 1155.265625 265.914062 1156.03125 C 279.859375 1159.660156 293.421875 1165.007812 306.601562 1170.738281 C 313.863281 1173.605469 320.355469 1178.191406 326.851562 1182.964844 Z M 326.851562 1182.964844 " fill-opacity="1" fill-rule="nonzero"/><path fill="#b54915" d="M 431.914062 1152.019531 C 431.53125 1152.785156 431.339844 1153.738281 430.960938 1154.503906 C 426.183594 1153.738281 421.40625 1154.695312 416.632812 1154.886719 C 411.09375 1156.414062 405.363281 1157.941406 399.441406 1158.898438 C 391.417969 1160.042969 383.394531 1159.46875 375.371094 1158.898438 C 371.742188 1158.324219 368.113281 1158.707031 364.484375 1157.558594 C 353.210938 1155.457031 343.46875 1148.964844 334.683594 1141.894531 C 328.953125 1137.691406 323.03125 1132.917969 320.355469 1126.039062 C 320.164062 1125.46875 319.972656 1124.894531 319.402344 1124.511719 C 318.445312 1124.128906 317.683594 1124.703125 317.492188 1125.660156 C 315.773438 1131.578125 312.90625 1137.3125 311.953125 1143.613281 C 310.230469 1151.636719 310.042969 1159.660156 309.277344 1167.875 C 307.75 1167.109375 306.222656 1166.539062 304.5 1165.773438 C 302.210938 1164.816406 299.917969 1163.863281 297.433594 1162.90625 C 299.726562 1153.738281 303.738281 1145.144531 305.074219 1135.78125 C 306.792969 1121.457031 307.941406 1106.746094 313.289062 1092.992188 C 313.671875 1091.847656 314.242188 1090.511719 315.007812 1089.363281 C 316.152344 1088.410156 316.152344 1086.6875 314.433594 1086.5 C 309.851562 1088.789062 305.074219 1091.847656 300.679688 1094.710938 C 292.46875 1099.296875 284.0625 1103.882812 276.613281 1109.613281 C 269.734375 1115.535156 262.667969 1120.882812 256.171875 1127.1875 C 250.25 1133.492188 245.09375 1140.558594 239.746094 1147.242188 C 239.554688 1147.054688 239.171875 1146.863281 238.980469 1146.863281 C 238.789062 1146.863281 238.40625 1146.863281 238.214844 1146.671875 C 238.023438 1146.671875 238.023438 1146.480469 237.835938 1146.480469 C 237.835938 1145.90625 238.023438 1145.523438 238.023438 1144.953125 C 238.214844 1143.234375 238.980469 1141.703125 240.125 1140.175781 C 243.566406 1133.679688 248.53125 1128.140625 253.878906 1123.175781 C 261.332031 1115.34375 269.351562 1107.703125 278.523438 1101.972656 C 292.277344 1093.183594 308.511719 1086.308594 318.253906 1072.746094 C 322.648438 1060.328125 324.75 1047.148438 327.996094 1034.539062 C 336.019531 1001.875 345 969.210938 357.988281 937.882812 C 364.863281 921.644531 372.695312 905.980469 380.339844 890.125 C 381.675781 887.453125 382.820312 884.777344 383.96875 881.910156 C 389.699219 882.867188 395.8125 883.058594 402.496094 882.484375 C 402.304688 882.867188 402.113281 883.058594 401.921875 883.441406 C 397.53125 891.652344 393.136719 899.675781 388.742188 907.890625 C 379.191406 926.421875 368.113281 944.375 360.664062 963.859375 C 352.257812 985.636719 346.144531 1007.988281 340.03125 1030.527344 C 335.828125 1047.53125 330.289062 1064.148438 326.660156 1081.339844 C 325.324219 1087.070312 323.605469 1092.800781 322.074219 1098.722656 C 321.3125 1103.882812 320.929688 1109.230469 319.972656 1114.386719 C 321.503906 1120.882812 325.515625 1126.421875 328.953125 1132.152344 C 333.347656 1139.03125 340.414062 1143.804688 347.480469 1148.007812 C 356.84375 1152.59375 367.539062 1153.738281 377.855469 1155.074219 C 387.023438 1155.648438 396.191406 1155.265625 405.363281 1155.265625 C 413.765625 1153.738281 422.171875 1151.636719 430.769531 1152.019531 C 431.152344 1151.828125 431.53125 1151.828125 431.914062 1152.019531 Z M 431.914062 1152.019531 " fill-opacity="1" fill-rule="nonzero"/><path fill="#b54915" d="M 232.867188 1145.144531 C 232.867188 1145.332031 232.867188 1145.523438 232.867188 1145.714844 C 232.105469 1145.523438 231.339844 1145.332031 230.574219 1145.144531 C 223.125 1143.804688 216.25 1140.75 209.371094 1137.882812 C 199.820312 1134.0625 190.269531 1129.671875 180.910156 1125.660156 C 167.539062 1119.355469 153.402344 1115.152344 139.265625 1110.757812 C 133.917969 1109.421875 128.757812 1107.511719 123.21875 1106.746094 C 138.121094 1103.882812 153.019531 1101.398438 168.300781 1102.734375 C 180.335938 1105.601562 192.945312 1108.085938 203.640625 1114.578125 C 206.886719 1116.679688 210.136719 1118.972656 213.382812 1121.457031 C 213.957031 1122.027344 214.53125 1122.792969 215.292969 1123.367188 C 219.113281 1127.378906 223.125 1131.199219 226.753906 1135.402344 C 228.664062 1138.648438 230.765625 1142.085938 232.867188 1145.144531 Z M 232.867188 1145.144531 " fill-opacity="1" fill-rule="nonzero"/><path fill="#b54915" d="M 232.484375 1148.582031 C 232.105469 1148.964844 231.53125 1149.15625 231.148438 1149.535156 C 218.921875 1153.738281 205.933594 1156.03125 193.132812 1157.558594 C 173.269531 1159.46875 152.636719 1159.851562 133.726562 1167.300781 C 123.792969 1171.121094 114.625 1177.042969 105.265625 1182.011719 C 96.859375 1187.933594 87.5 1192.324219 78.902344 1198.054688 C 72.214844 1202.066406 66.292969 1207.226562 59.226562 1210.664062 C 50.058594 1215.25 41.84375 1221.171875 32.867188 1225.753906 C 28.472656 1227.472656 24.269531 1228.238281 19.683594 1229.003906 C 19.304688 1229.195312 18.539062 1229.195312 17.773438 1229.382812 C 34.203125 1219.070312 47.191406 1204.742188 60.375 1190.988281 C 72.027344 1178.953125 84.632812 1167.492188 98.578125 1158.132812 C 110.996094 1150.683594 124.75 1146.289062 138.5 1142.085938 C 140.984375 1141.324219 144.613281 1142.851562 146.523438 1140.558594 C 147.289062 1139.222656 145.953125 1137.882812 144.613281 1138.074219 C 129.714844 1134.636719 123.984375 1118.589844 114.242188 1108.464844 C 125.320312 1110.1875 136.019531 1113.242188 146.714844 1116.679688 C 157.605469 1120.308594 168.300781 1123.75 178.808594 1128.523438 C 196.574219 1135.972656 213.765625 1144.378906 232.484375 1148.582031 Z M 232.484375 1148.582031 " fill-opacity="1" fill-rule="nonzero"/><path fill="#b54915" d="M 223.316406 1155.839844 C 212.617188 1164.628906 205.550781 1177.234375 198.101562 1188.886719 C 175.371094 1227.664062 170.019531 1273.320312 162.570312 1316.875 C 157.796875 1348.964844 153.210938 1381.4375 142.894531 1412.195312 C 140.792969 1420.21875 137.929688 1426.902344 134.300781 1434.351562 C 133.34375 1436.835938 132.582031 1439.320312 131.433594 1441.804688 C 129.714844 1435.308594 127.421875 1428.8125 124.9375 1422.507812 C 116.917969 1398.824219 105.644531 1376.28125 98.578125 1352.210938 C 90.746094 1325.085938 90.171875 1296.050781 96.476562 1268.542969 C 98.578125 1259.949219 101.253906 1251.734375 104.691406 1243.519531 C 105.644531 1241.417969 106.410156 1239.316406 107.363281 1237.214844 C 108.128906 1235.878906 108.703125 1233.777344 106.601562 1233.394531 C 78.136719 1239.125 46.621094 1243.710938 19.304688 1231.484375 C 23.316406 1230.914062 27.324219 1230.339844 31.335938 1229.003906 C 37.832031 1226.902344 43.371094 1222.316406 49.292969 1219.070312 C 55.214844 1215.058594 61.902344 1212.382812 67.824219 1208.371094 C 77.949219 1200.921875 88.835938 1194.617188 99.722656 1188.503906 C 114.433594 1179.144531 129.90625 1169.785156 147.097656 1165.773438 C 172.3125 1160.234375 198.484375 1162.527344 223.316406 1155.839844 Z M 223.316406 1155.839844 " fill-opacity="1" fill-rule="nonzero"/><path fill="#b54915" d="M 435.351562 1161.953125 C 435.542969 1161.953125 435.542969 1161.953125 435.734375 1161.953125 C 433.632812 1170.167969 434.207031 1178.953125 434.589844 1187.359375 C 435.160156 1199.394531 435.351562 1211.429688 434.972656 1223.460938 C 434.78125 1238.9375 431.339844 1254.21875 426.757812 1268.925781 C 423.890625 1276.949219 418.542969 1283.636719 413.765625 1290.703125 C 409.945312 1295.667969 406.507812 1301.019531 402.113281 1305.410156 C 401.921875 1305.601562 401.734375 1305.792969 401.542969 1305.984375 C 401.921875 1297.960938 398.867188 1290.511719 397.148438 1282.871094 C 394.28125 1271.984375 391.609375 1260.902344 391.226562 1249.441406 C 389.890625 1229.957031 399.441406 1212.574219 408.800781 1196.144531 C 414.722656 1187.550781 420.644531 1179.144531 426.183594 1170.167969 C 426.375 1169.976562 426.375 1169.785156 426.566406 1169.59375 C 428.476562 1167.683594 430.195312 1165.582031 432.488281 1164.246094 C 433.25 1163.289062 434.207031 1162.527344 435.351562 1161.953125 Z M 435.351562 1161.953125 " fill-opacity="1" fill-rule="nonzero"/><path fill="#b54915" d="M 541.945312 1349.539062 C 542.707031 1352.976562 543.28125 1356.222656 544.238281 1359.472656 C 538.886719 1354.3125 531.4375 1352.023438 525.132812 1348.582031 C 516.921875 1344.761719 508.898438 1340.371094 500.683594 1336.359375 C 491.132812 1331.199219 482.34375 1324.894531 474.703125 1317.253906 C 465.535156 1309.996094 458.277344 1300.636719 454.265625 1289.746094 C 452.164062 1284.78125 451.207031 1279.242188 450.0625 1273.703125 C 449.488281 1271.410156 449.296875 1268.351562 447.386719 1266.632812 C 446.050781 1265.871094 444.523438 1267.015625 444.332031 1268.351562 C 437.644531 1285.164062 422.746094 1298.152344 406.316406 1305.792969 C 408.992188 1303.121094 411.09375 1300.0625 413.386719 1297.199219 C 418.351562 1290.511719 423.507812 1283.824219 427.519531 1276.566406 C 433.0625 1265.679688 434.972656 1253.644531 437.261719 1241.800781 C 440.703125 1220.789062 438.792969 1199.203125 438.21875 1178 C 438.027344 1172.078125 438.410156 1165.964844 440.320312 1160.425781 C 442.804688 1164.628906 445.285156 1168.828125 448.535156 1172.648438 C 454.457031 1180.101562 459.996094 1188.3125 464.960938 1196.335938 C 488.265625 1236.644531 512.910156 1276.566406 531.4375 1319.355469 C 536.023438 1328.90625 538.507812 1339.414062 541.945312 1349.539062 Z M 541.945312 1349.539062 " fill-opacity="1" fill-rule="nonzero"/><path fill="#b54915" d="M 740.609375 1253.644531 C 731.058594 1255.746094 722.078125 1259.375 712.910156 1262.8125 C 698.582031 1267.398438 684.066406 1271.601562 669.546875 1275.421875 C 648.917969 1280.578125 628.285156 1287.835938 606.511719 1285.355469 C 600.207031 1284.589844 593.710938 1284.78125 587.40625 1283.828125 C 580.53125 1282.105469 573.273438 1281.726562 566.203125 1280.195312 C 563.53125 1279.433594 560.855469 1278.859375 558.371094 1278.09375 C 555.890625 1277.140625 555.316406 1279.816406 555.890625 1281.726562 C 557.226562 1290.511719 556.84375 1299.109375 556.269531 1307.894531 C 554.550781 1325.46875 553.214844 1343.617188 547.101562 1360.425781 C 546.148438 1356.035156 545.382812 1351.449219 544.425781 1347.054688 C 542.707031 1340.558594 540.226562 1334.257812 538.695312 1327.570312 C 536.40625 1319.738281 532.203125 1312.671875 529.335938 1305.222656 C 524.371094 1294.90625 519.402344 1284.78125 514.4375 1274.464844 C 509.660156 1265.296875 504.121094 1256.511719 499.347656 1247.339844 C 489.984375 1230.722656 480.242188 1214.484375 470.691406 1198.054688 C 463.816406 1185.449219 454.835938 1174.179688 446.242188 1162.71875 C 445.859375 1161.953125 445.285156 1161.1875 444.902344 1160.425781 C 446.625 1161.378906 448.152344 1162.527344 449.871094 1163.480469 C 454.265625 1165.773438 458.65625 1168.066406 463.050781 1170.359375 C 469.929688 1174.371094 476.996094 1177.617188 484.636719 1180.101562 C 491.707031 1183.347656 498.773438 1186.023438 506.222656 1187.359375 C 513.863281 1189.460938 521.695312 1190.796875 529.527344 1191.5625 C 536.785156 1192.898438 544.617188 1194.617188 552.070312 1195.382812 C 565.058594 1196.335938 578.046875 1196.910156 590.847656 1198.820312 C 597.53125 1199.964844 604.601562 1202.257812 611.476562 1203.023438 C 620.265625 1203.597656 628.285156 1206.652344 636.882812 1208.945312 C 648.34375 1211.808594 659.996094 1215.25 670.886719 1219.832031 C 678.144531 1223.273438 685.785156 1225.753906 692.851562 1229.382812 C 699.347656 1232.824219 705.652344 1236.070312 712.335938 1239.125 C 721.699219 1244.09375 730.867188 1249.632812 740.609375 1253.644531 Z M 740.609375 1253.644531 " fill-opacity="1" fill-rule="nonzero"/><path fill="#b54915" d="M 743.664062 1252.878906 C 729.910156 1246.578125 716.921875 1238.554688 703.359375 1232.25 C 692.28125 1225.5625 680.4375 1220.980469 668.785156 1215.628906 C 652.164062 1209.519531 635.164062 1204.550781 617.972656 1200.539062 C 610.140625 1199.777344 602.691406 1198.246094 594.859375 1196.144531 C 573.464844 1192.132812 551.496094 1193.472656 530.292969 1188.3125 C 517.683594 1186.785156 504.695312 1184.304688 492.660156 1179.910156 C 482.34375 1175.515625 471.839844 1171.886719 462.289062 1165.964844 C 457.320312 1163.671875 452.734375 1160.996094 448.152344 1158.324219 C 461.714844 1157.75 475.085938 1155.648438 488.074219 1151.828125 C 494.953125 1149.535156 501.636719 1146.480469 508.324219 1143.234375 C 516.347656 1139.410156 524.5625 1135.972656 532.394531 1131.582031 C 538.695312 1128.140625 545.382812 1125.277344 551.304688 1120.882812 C 556.460938 1117.253906 561.046875 1113.050781 566.394531 1109.613281 C 574.035156 1104.835938 581.675781 1099.679688 588.554688 1093.757812 C 596.578125 1085.542969 604.21875 1077.136719 612.050781 1068.734375 C 613.195312 1067.394531 622.746094 1057.273438 626.949219 1050.777344 C 624.65625 1066.824219 623.128906 1082.867188 618.925781 1098.53125 C 616.0625 1109.230469 610.523438 1119.355469 604.792969 1128.714844 C 604.601562 1130.242188 606.128906 1131.007812 607.464844 1130.816406 C 608.992188 1130.625 610.523438 1131.007812 612.050781 1131.199219 C 617.207031 1131.390625 621.410156 1133.300781 625.996094 1135.402344 C 636.691406 1139.792969 646.242188 1146.289062 655.601562 1152.785156 C 661.90625 1157.75 668.402344 1162.527344 674.132812 1168.257812 C 682.347656 1177.425781 689.988281 1187.359375 696.863281 1197.675781 C 703.742188 1206.652344 710.808594 1215.25 717.496094 1224.226562 C 725.710938 1234.351562 733.351562 1245.046875 743.664062 1252.878906 Z M 743.664062 1252.878906 " fill-opacity="1" fill-rule="nonzero"/><path fill="#b54915" d="M 623.511719 1050.394531 C 617.589844 1057.84375 610.902344 1064.722656 604.410156 1071.789062 C 597.53125 1078.285156 591.992188 1085.734375 584.925781 1092.039062 C 577.09375 1098.34375 568.113281 1103.882812 559.710938 1109.613281 C 553.980469 1114.007812 548.4375 1118.589844 542.136719 1122.027344 C 535.257812 1125.46875 528.761719 1129.289062 521.886719 1132.535156 C 508.707031 1138.265625 496.097656 1145.714844 482.152344 1149.34375 C 471.265625 1151.445312 460.566406 1153.738281 449.488281 1153.929688 C 448.152344 1153.929688 446.8125 1153.929688 445.476562 1154.121094 C 450.636719 1149.535156 455.027344 1144.378906 458.847656 1138.648438 C 468.398438 1127.949219 474.703125 1114.960938 481.773438 1102.542969 C 490.175781 1087.070312 501.828125 1071.027344 501.445312 1052.878906 C 506.414062 1059.753906 508.515625 1068.351562 509.46875 1076.757812 C 509.660156 1080.386719 510.042969 1083.824219 510.425781 1087.453125 C 510.425781 1088.410156 510.617188 1089.554688 511.378906 1090.320312 C 512.335938 1091.082031 513.671875 1090.511719 514.4375 1089.554688 C 515.582031 1088.21875 516.921875 1086.878906 518.066406 1085.734375 C 526.089844 1078.859375 536.023438 1074.273438 545.765625 1070.261719 C 560.472656 1064.722656 576.519531 1063.003906 591.992188 1060.136719 C 602.308594 1057.84375 613.195312 1054.789062 623.511719 1050.394531 Z M 623.511719 1050.394531 " fill-opacity="1" fill-rule="nonzero"/><path fill="#b54915" d="M 498.199219 1053.640625 C 497.625 1068.160156 489.414062 1080.769531 482.726562 1092.992188 C 474.320312 1106.363281 467.828125 1120.882812 457.894531 1133.300781 C 452.925781 1139.03125 449.296875 1145.714844 442.992188 1150.683594 C 442.992188 1150.683594 442.992188 1150.683594 442.804688 1150.492188 C 441.847656 1149.152344 439.746094 1150.109375 439.554688 1151.445312 C 439.9375 1149.152344 440.128906 1146.863281 440.320312 1144.761719 C 440.703125 1141.511719 440.894531 1138.457031 441.464844 1135.210938 C 442.230469 1133.679688 442.804688 1132.152344 443.566406 1130.625 C 445.09375 1126.613281 446.050781 1122.410156 447.578125 1118.398438 C 451.78125 1110.183594 457.128906 1102.734375 462.667969 1095.285156 C 474.511719 1081.53125 489.03125 1069.496094 498.199219 1053.640625 Z M 498.199219 1053.640625 " fill-opacity="1" fill-rule="nonzero"/><path fill="#b54915" d="M 507.558594 842.371094 C 507.75 842.179688 507.941406 841.988281 507.941406 841.988281 C 504.503906 853.832031 500.875 865.675781 498.390625 877.902344 C 495.527344 895.855469 491.703125 913.429688 485.59375 930.621094 C 482.726562 939.21875 479.671875 947.816406 475.085938 955.648438 C 470.691406 964.242188 466.296875 972.648438 460.566406 980.289062 C 454.457031 990.605469 446.050781 999.390625 439.554688 1009.515625 C 436.117188 1016.394531 430.960938 1022.503906 427.519531 1029.574219 C 423.128906 1039.699219 418.160156 1050.394531 416.824219 1061.472656 C 416.058594 1057.464844 415.296875 1053.453125 414.53125 1049.441406 C 413.957031 1046.765625 413.578125 1044.28125 412.8125 1041.609375 C 407.84375 1022.125 404.789062 1002.066406 403.070312 982.007812 C 401.921875 971.503906 400.96875 960.804688 401.921875 950.296875 C 402.878906 939.601562 405.746094 929.285156 408.417969 918.96875 C 411.855469 907.699219 416.058594 896.238281 422.554688 886.113281 C 423.699219 884.203125 424.847656 882.484375 425.992188 880.574219 C 426.757812 879.238281 428.285156 877.136719 426.566406 875.992188 C 425.992188 875.609375 425.230469 875.609375 424.464844 875.800781 C 413.957031 877.710938 403.261719 880.382812 392.371094 879.621094 C 381.867188 879.429688 371.550781 876.371094 362 871.980469 C 355.503906 868.730469 349.199219 864.71875 342.707031 861.472656 C 343.089844 861.28125 343.660156 861.28125 344.042969 861.089844 C 350.921875 861.664062 357.605469 863.574219 364.675781 863.382812 C 377.664062 863.957031 389.890625 859.945312 402.304688 856.695312 C 417.207031 853.832031 432.296875 851.347656 447.578125 850.394531 C 455.410156 849.820312 463.242188 849.246094 471.074219 849.820312 C 477.761719 850.585938 484.636719 851.347656 491.515625 850.394531 C 498.199219 850.203125 503.167969 846.574219 507.558594 842.371094 Z M 507.558594 842.371094 " fill-opacity="1" fill-rule="nonzero"/><path fill="#b54915" d="M 499.917969 838.742188 C 502.210938 838.742188 504.695312 838.550781 506.988281 837.976562 C 496.863281 849.628906 486.355469 848.484375 472.03125 846.953125 C 460.378906 846.382812 448.726562 847.527344 437.261719 848.484375 C 425.800781 849.628906 414.339844 851.539062 402.878906 853.449219 C 393.136719 855.550781 383.777344 858.796875 373.652344 859.5625 C 368.113281 860.136719 362.953125 860.136719 357.222656 859.753906 C 354.933594 859.753906 352.640625 859.371094 350.347656 859.179688 C 362.382812 854.40625 372.695312 846.191406 383.777344 839.695312 C 391.992188 835.109375 400.777344 831.863281 409.753906 829.570312 C 415.488281 828.234375 421.789062 827.277344 427.902344 828.042969 C 429.050781 828.042969 430.578125 828.042969 431.152344 826.707031 C 431.722656 825.179688 430.386719 824.605469 429.238281 824.222656 C 419.878906 820.210938 414.914062 811.234375 410.136719 802.828125 C 415.675781 807.414062 422.746094 809.894531 429.050781 813.144531 C 437.835938 816.964844 447.003906 820.210938 456.175781 823.078125 C 462.289062 825.941406 468.589844 828.617188 474.894531 831.480469 C 482.34375 835.875 490.941406 839.121094 499.917969 838.742188 Z M 499.917969 838.742188 " fill-opacity="1" fill-rule="nonzero"/><path fill="#b54915" d="M 507.558594 834.921875 C 507.558594 834.921875 507.75 835.109375 507.75 835.109375 C 500.109375 836.832031 492.085938 835.683594 484.828125 833.011719 C 476.996094 829.1875 469.355469 824.988281 461.332031 821.738281 C 455.21875 818.300781 448.152344 816.964844 441.65625 814.480469 C 431.152344 809.703125 419.878906 806.074219 410.328125 799.582031 C 410.136719 799.390625 409.945312 799.390625 409.753906 799.199219 C 425.800781 801.300781 442.421875 801.109375 458.277344 804.929688 C 468.78125 807.792969 478.90625 812.378906 488.265625 818.492188 C 495.90625 822.121094 502.019531 827.851562 507.367188 834.539062 C 507.367188 834.539062 507.367188 834.730469 507.558594 834.921875 Z M 507.558594 834.921875 " fill-opacity="1" fill-rule="nonzero"/><path fill="#b54915" d="M 596.578125 977.042969 C 601.160156 982.199219 605.554688 987.929688 611.285156 991.941406 C 596.578125 990.222656 582.441406 984.683594 568.878906 978.378906 C 556.078125 973.03125 547.675781 969.78125 541.5625 956.410156 C 540.035156 953.355469 539.652344 949.726562 538.695312 946.289062 C 538.125 944.375 535.449219 944.375 534.875 946.289062 C 533.730469 953.355469 530.484375 959.851562 526.664062 965.960938 C 518.066406 981.433594 505.839844 994.808594 493.425781 1007.414062 C 482.34375 1017.539062 470.882812 1027.28125 458.65625 1036.257812 C 446.050781 1045.621094 431.722656 1052.6875 418.542969 1061.09375 C 421.410156 1048.484375 426.375 1036.257812 432.679688 1024.796875 C 436.691406 1019.066406 439.9375 1013.144531 443.566406 1007.222656 C 449.296875 999.199219 455.984375 991.75 461.140625 983.15625 C 466.679688 975.894531 471.457031 968.445312 475.46875 960.230469 C 486.546875 941.128906 492.851562 919.542969 498.582031 898.148438 C 502.019531 879.429688 505.648438 860.898438 510.617188 842.371094 C 510.808594 841.605469 511 840.84375 511.378906 840.078125 C 511.953125 840.460938 512.335938 840.84375 512.910156 841.222656 C 517.683594 853.449219 525.132812 864.527344 532.964844 875.226562 C 540.796875 887.070312 548.25 899.105469 554.742188 911.519531 C 562.382812 925.65625 570.980469 939.410156 579.765625 952.78125 C 584.351562 961.378906 590.65625 969.210938 596.578125 977.042969 Z M 596.578125 977.042969 " fill-opacity="1" fill-rule="nonzero"/><path fill="#b54915" d="M 616.445312 992.324219 C 616.445312 992.324219 616.253906 992.324219 616.445312 992.324219 C 615.488281 991.75 614.535156 991.175781 613.769531 990.414062 C 607.65625 986.402344 603.261719 980.289062 598.296875 974.75 C 587.789062 961.949219 579.195312 947.625 570.597656 933.488281 C 561.238281 917.441406 553.40625 900.632812 543.472656 884.96875 C 535.066406 871.40625 524.753906 858.988281 518.449219 844.28125 C 540.035156 855.933594 555.507812 842.941406 580.722656 846 C 590.082031 847.335938 598.871094 851.730469 607.65625 854.785156 C 598.296875 861.28125 588.746094 867.394531 578.238281 872.550781 C 574.609375 874.269531 570.40625 874.84375 567.734375 878.28125 C 566.777344 879.621094 567.734375 881.339844 569.070312 882.101562 C 570.980469 883.820312 572.890625 885.351562 574.609375 887.070312 C 580.722656 893.945312 585.496094 901.96875 590.273438 909.992188 C 595.238281 920.308594 599.25 931.195312 602.308594 942.085938 C 606.320312 959.085938 608.039062 976.851562 616.445312 992.324219 Z M 616.445312 992.324219 " fill-opacity="1" fill-rule="nonzero"/><path fill="#b54915" d="M 591.609375 844.28125 C 594.667969 845.617188 597.53125 847.527344 600.398438 849.246094 C 589.507812 844.472656 578.238281 841.414062 566.203125 842.5625 C 552.257812 842.941406 537.550781 849.246094 523.988281 842.941406 C 521.695312 841.988281 519.59375 840.652344 517.492188 839.3125 C 519.785156 839.3125 522.078125 839.503906 524.5625 839.503906 C 535.449219 839.121094 546.527344 837.59375 557.417969 837.785156 C 569.261719 836.640625 580.914062 839.121094 591.609375 844.28125 Z M 591.609375 844.28125 " fill-opacity="1" fill-rule="nonzero"/><path fill="#b54915" d="M 899.539062 387.925781 C 899.921875 387.925781 900.304688 388.117188 900.6875 388.117188 C 899.921875 388.496094 899.351562 388.878906 898.777344 389.070312 C 891.898438 391.363281 885.597656 395.183594 878.910156 398.238281 C 866.875 403.398438 855.03125 409.128906 843.1875 414.859375 C 837.074219 417.914062 831.15625 421.351562 825.234375 424.984375 C 819.121094 428.421875 812.625 431.285156 806.511719 434.726562 C 783.015625 447.332031 760.476562 461.46875 738.125 475.796875 C 723.988281 485.917969 709.855469 495.851562 696.292969 506.550781 C 682.539062 517.4375 669.738281 529.472656 656.75 541.125 C 651.78125 546.09375 646.625 551.058594 642.421875 556.597656 C 640.703125 565.195312 640.703125 574.363281 639.75 583.339844 C 639.175781 587.164062 638.984375 590.984375 638.410156 594.804688 C 636.5 596.90625 634.589844 599.003906 632.679688 601.105469 C 632.296875 601.488281 631.726562 602.0625 631.34375 602.636719 C 631.726562 601.296875 632.109375 599.960938 632.296875 598.625 C 634.972656 590.984375 635.355469 582.960938 636.308594 574.9375 C 636.882812 571.117188 637.839844 566.722656 635.738281 563.285156 C 635.546875 563.09375 635.355469 562.902344 635.164062 562.902344 C 634.78125 562.710938 634.207031 562.902344 633.828125 563.285156 C 632.488281 564.429688 631.152344 565.578125 629.816406 566.53125 C 619.882812 574.746094 610.523438 583.914062 601.351562 592.894531 C 598.296875 596.332031 594.476562 599.003906 591.230469 602.253906 C 587.027344 606.074219 583.96875 610.847656 580.148438 615.050781 C 579.386719 615.816406 578.8125 616.960938 578.238281 617.917969 C 573.464844 619.828125 568.6875 622.121094 564.292969 624.792969 C 548.820312 632.816406 537.167969 647.335938 528.765625 662.234375 C 528.191406 663 528 664.144531 528.953125 664.71875 C 529.335938 664.910156 529.910156 664.910156 530.292969 664.71875 C 532.394531 663.761719 534.683594 663 537.167969 662.234375 C 539.078125 661.660156 540.988281 661.46875 542.898438 661.46875 C 539.269531 667.011719 535.066406 671.976562 531.4375 677.515625 C 524.753906 685.539062 518.832031 694.136719 512.910156 702.539062 C 508.898438 707.507812 505.269531 712.855469 502.59375 718.777344 C 502.402344 719.351562 502.019531 719.921875 502.210938 720.496094 C 502.402344 721.261719 503.167969 721.453125 503.929688 721.261719 C 504.695312 722.023438 505.648438 722.597656 506.222656 723.363281 C 509.851562 726.226562 512.910156 729.664062 515.390625 733.488281 C 530.675781 755.835938 537.933594 782.769531 524.753906 807.984375 C 521.695312 813.90625 517.875 819.445312 514.628906 825.367188 C 512.910156 828.042969 511.570312 830.910156 511.191406 833.964844 C 510.808594 833.582031 510.234375 833.390625 509.851562 833.199219 C 510.042969 832.4375 510.234375 831.480469 510.425781 830.910156 C 511.191406 827.851562 513.289062 825.367188 514.628906 822.503906 C 524.179688 805.882812 530.675781 785.636719 525.132812 766.535156 C 522.84375 760.039062 520.359375 753.351562 517.109375 747.238281 C 514.246094 742.847656 510.425781 739.21875 507.75 734.824219 C 506.03125 733.296875 502.402344 727.375 499.347656 726.035156 C 499.347656 725.84375 499.15625 725.84375 498.964844 725.65625 C 498.582031 725.464844 498.199219 725.65625 498.007812 725.84375 C 497.816406 725.84375 497.625 725.84375 497.625 726.035156 C 497.625 726.226562 497.4375 726.226562 497.4375 726.417969 C 495.90625 727.753906 494.570312 729.664062 493.234375 731.386719 C 489.792969 735.585938 487.3125 740.746094 484.253906 745.328125 C 480.433594 751.824219 475.46875 757.746094 472.03125 764.433594 C 468.398438 770.734375 465.152344 777.421875 461.332031 783.535156 C 457.894531 788.882812 455.21875 794.421875 451.78125 799.773438 C 446.050781 798.625 440.128906 798.050781 434.398438 797.480469 C 434.589844 797.097656 434.78125 796.714844 434.972656 796.332031 C 438.027344 790.601562 440.511719 784.679688 443.183594 778.949219 C 445.667969 774.746094 448.152344 770.355469 451.015625 766.152344 C 452.164062 764.625 453.691406 763.09375 455.027344 761.566406 C 455.601562 761.183594 456.175781 760.992188 456.746094 760.613281 C 457.894531 760.039062 457.511719 758.128906 456.175781 758.128906 C 455.601562 758.128906 455.027344 758.703125 454.457031 758.890625 C 452.164062 759.464844 450.824219 760.992188 448.535156 761.949219 C 436.117188 768.824219 422.363281 773.21875 408.226562 774.9375 C 391.417969 778.1875 374.226562 778.566406 357.03125 779.523438 C 348.054688 779.140625 338.886719 779.140625 330.097656 777.421875 C 325.894531 776.65625 321.886719 775.511719 317.875 773.984375 C 314.054688 773.027344 310.230469 772.265625 306.410156 771.308594 C 307.175781 771.117188 307.75 770.164062 307.558594 769.398438 C 307.558594 769.398438 307.558594 769.207031 307.367188 769.207031 C 319.785156 770.734375 332.390625 772.265625 344.808594 773.410156 C 351.300781 773.792969 357.796875 775.128906 364.484375 774.9375 C 387.789062 775.320312 411.285156 771.5 433.25 763.667969 C 442.992188 759.847656 452.164062 754.882812 461.140625 749.722656 C 462.667969 749.152344 465.152344 748.195312 465.34375 746.476562 C 465.34375 746.285156 465.34375 746.285156 465.34375 746.09375 C 465.917969 745.140625 466.300781 743.800781 466.871094 743.039062 C 468.972656 739.027344 471.648438 735.015625 473.75 730.8125 C 483.492188 716.101562 495.335938 702.921875 505.839844 688.785156 C 511.570312 679.808594 519.019531 671.976562 525.324219 663.191406 C 539.269531 644.46875 554.167969 626.703125 569.832031 609.511719 C 577.664062 599.960938 584.925781 590.410156 593.519531 581.429688 C 599.058594 574.9375 604.601562 568.441406 610.902344 562.710938 C 639.75 537.878906 669.738281 514 700.683594 491.839844 C 712.148438 483.628906 723.035156 474.839844 734.304688 466.625 C 742.136719 461.085938 750.542969 456.121094 757.800781 449.816406 C 757.992188 449.816406 757.992188 450.007812 758.183594 450.007812 C 759.902344 450.578125 761.429688 448.289062 760.09375 446.949219 C 759.519531 446.378906 758.949219 445.996094 758.375 445.613281 C 755.128906 442.558594 750.734375 441.410156 746.722656 439.691406 C 736.597656 436.253906 726.28125 432.816406 715.394531 433.386719 C 707.179688 432.625 699.15625 432.625 690.941406 432.050781 C 685.976562 432.242188 680.820312 432.625 675.851562 432.050781 C 675.660156 432.050781 675.277344 432.050781 674.707031 432.050781 C 674.898438 431.667969 674.898438 431.476562 675.089844 431.09375 C 681.964844 431.09375 689.03125 429.566406 696.101562 429.757812 C 705.078125 429.949219 714.246094 431.285156 723.035156 433.003906 C 730.292969 434.152344 737.742188 434.726562 745.003906 436.445312 C 752.070312 438.164062 758.949219 441.601562 766.207031 442.558594 C 772.511719 442.9375 777.859375 439.117188 783.398438 436.636719 C 792.375 432.625 800.972656 428.039062 809.378906 423.074219 C 818.929688 417.53125 829.246094 413.519531 838.414062 407.410156 C 845.289062 402.632812 852.929688 399.003906 860.191406 394.992188 C 865.921875 390.980469 872.035156 387.542969 878.144531 384.105469 C 878.71875 383.722656 879.292969 383.339844 880.058594 383.148438 C 880.4375 382.957031 880.820312 382.957031 881.203125 382.765625 C 887.125 385.25 893.238281 386.777344 899.539062 387.925781 Z M 899.539062 387.925781 " fill-opacity="1" fill-rule="nonzero"/><path fill="#b54915" d="M 626.949219 615.433594 C 626.757812 616.390625 626.757812 617.152344 626.566406 618.109375 C 625.230469 634.726562 617.589844 650.007812 610.523438 664.71875 C 604.601562 678.472656 597.339844 691.269531 589.890625 704.261719 C 586.644531 711.136719 581.867188 717.058594 579.003906 724.125 C 575.183594 731.386719 573.273438 739.597656 569.832031 747.050781 C 569.070312 743.992188 568.304688 740.554688 566.394531 737.878906 C 562.957031 732.53125 559.902344 727.183594 557.609375 721.070312 C 552.640625 707.507812 551.6875 691.84375 555.125 677.707031 C 556.269531 674.078125 557.992188 670.640625 559.902344 667.390625 C 560.664062 665.480469 566.011719 660.707031 563.148438 659.371094 C 553.023438 660.324219 542.328125 656.503906 532.773438 661.089844 C 532.964844 660.898438 533.15625 660.515625 533.347656 660.324219 C 535.257812 658.605469 537.550781 655.929688 538.695312 655.359375 C 543.089844 652.683594 547.101562 649.628906 552.070312 647.90625 C 557.992188 645.425781 564.101562 642.175781 570.597656 640.648438 C 584.351562 636.445312 599.25 634.917969 611.859375 627.851562 C 617.207031 624.601562 621.410156 620.019531 625.613281 615.242188 C 625.804688 615.625 626.375 615.625 626.949219 615.433594 Z M 626.949219 615.433594 " fill-opacity="1" fill-rule="nonzero"/><path fill="#b54915" d="M 716.539062 784.679688 C 718.832031 790.21875 721.316406 796.140625 725.136719 800.726562 C 708.324219 796.714844 693.234375 787.929688 678.144531 779.714844 C 664.582031 773.027344 651.59375 765.003906 641.660156 753.734375 C 631.726562 744.949219 623.128906 734.25 618.164062 721.644531 C 615.871094 714.765625 615.296875 707.125 615.296875 699.867188 C 615.105469 697.574219 617.207031 689.167969 612.625 691.269531 C 603.644531 711.710938 589.507812 730.046875 572.890625 744.949219 C 574.226562 742.082031 575.183594 739.027344 576.328125 736.160156 C 578.238281 731.003906 580.914062 726.226562 583.207031 721.261719 C 593.519531 703.496094 604.410156 685.730469 613.003906 667.203125 C 619.882812 653.449219 627.140625 639.3125 629.625 624.03125 C 630.199219 621.164062 630.386719 618.109375 630.769531 615.050781 C 630.960938 615.050781 630.960938 615.050781 631.152344 614.859375 C 631.34375 614.859375 631.535156 614.859375 631.726562 614.859375 C 641.851562 620.589844 648.726562 631.097656 655.222656 640.648438 C 662.097656 650.390625 668.59375 660.515625 673.75 671.210938 C 688.652344 695.664062 692.851562 724.316406 702.40625 750.871094 C 706.988281 762.332031 712.148438 773.410156 716.539062 784.679688 Z M 716.539062 784.679688 " fill-opacity="1" fill-rule="nonzero"/><path fill="#b54915" d="M 621.21875 614.480469 C 617.78125 618.300781 613.960938 622.121094 609.566406 624.984375 C 599.824219 630.523438 588.746094 632.816406 578.046875 635.492188 C 564.292969 639.121094 551.113281 644.46875 539.460938 652.492188 C 538.695312 652.875 538.125 653.449219 537.359375 654.019531 C 542.707031 646.378906 549.394531 639.3125 556.652344 633.390625 C 565.441406 627.46875 574.992188 622.882812 584.925781 619.445312 C 596.769531 615.433594 608.992188 615.050781 621.21875 614.480469 Z M 621.21875 614.480469 " fill-opacity="1" fill-rule="nonzero"/><path fill="#b54915" d="M 708.324219 568.632812 C 711.191406 568.25 714.246094 568.058594 717.113281 567.296875 C 704.886719 576.082031 690.941406 581.621094 676.617188 586.398438 C 666.109375 591.363281 655.222656 595.183594 644.714844 600.152344 C 641.46875 601.679688 638.027344 603.015625 634.972656 604.738281 C 639.75 598.816406 645.671875 593.082031 651.78125 588.308594 C 662.480469 581.050781 674.132812 575.128906 686.742188 571.6875 C 694 569.96875 700.875 569.398438 708.324219 568.632812 Z M 708.324219 568.632812 " fill-opacity="1" fill-rule="nonzero"/><path fill="#b54915" d="M 778.433594 625.367188 C 774.613281 624.410156 770.789062 623.648438 766.96875 623.265625 C 760.09375 622.691406 753.214844 619.636719 746.148438 619.253906 C 733.160156 618.679688 719.976562 618.109375 706.796875 617.535156 C 694.953125 616.769531 683.300781 613.714844 671.457031 611.613281 C 663.433594 610.277344 655.792969 610.277344 647.773438 609.703125 C 642.613281 609.320312 637.457031 610.085938 632.296875 610.847656 C 632.296875 610.847656 632.109375 610.847656 632.109375 610.65625 C 633.636719 609.320312 635.355469 607.984375 637.265625 607.027344 C 647.199219 602.253906 657.132812 597.476562 667.445312 593.65625 C 673.558594 590.984375 678.910156 587.925781 685.402344 586.015625 C 698.011719 581.050781 710.808594 575.320312 720.742188 565.957031 C 718.640625 573.789062 717.113281 582.195312 712.335938 588.882812 C 711.382812 590.21875 709.664062 591.363281 709.28125 593.082031 C 709.28125 595.757812 712.527344 595.757812 714.4375 596.140625 C 719.789062 597.09375 725.136719 597.476562 730.484375 599.195312 C 742.710938 603.207031 754.554688 608.558594 765.632812 615.242188 C 770.21875 618.300781 774.230469 622.121094 778.433594 625.367188 Z M 778.433594 625.367188 " fill-opacity="1" fill-rule="nonzero"/><path fill="#b54915" d="M 783.589844 628.804688 C 784.164062 629.1875 784.734375 629.378906 785.308594 629.761719 C 775.375 636.0625 764.867188 642.75 753.027344 644.660156 C 747.867188 645.804688 742.519531 645.617188 737.363281 645.042969 C 729.339844 643.894531 725.710938 645.996094 732.96875 652.492188 C 743.472656 662.808594 751.878906 673.503906 753.789062 688.597656 C 757.417969 708.652344 752.453125 729.09375 744.046875 747.429688 C 736.023438 764.050781 729.148438 781.433594 726.664062 799.773438 C 722.652344 793.851562 720.550781 786.972656 718.066406 780.289062 C 714.246094 769.78125 709.855469 759.464844 705.652344 748.960938 C 696.671875 722.40625 692.089844 693.945312 677.378906 669.683594 C 671.839844 658.414062 664.964844 648.097656 657.894531 637.785156 C 652.164062 629.378906 645.859375 620.210938 637.457031 614.289062 C 638.792969 614.097656 640.320312 613.90625 641.660156 613.714844 C 657.703125 613.332031 673.558594 615.625 689.03125 619.253906 C 706.605469 622.5 724.5625 622.121094 742.328125 622.882812 C 748.632812 622.882812 754.746094 624.601562 760.859375 625.75 C 768.5 626.511719 775.949219 627.46875 783.589844 628.804688 Z M 783.589844 628.804688 " fill-opacity="1" fill-rule="nonzero"/><path fill="#b54915" d="M 668.976562 437.398438 C 668.785156 438.925781 668.59375 440.265625 668.210938 441.792969 C 665.347656 449.625 663.625 457.648438 660.953125 465.480469 C 655.03125 480.1875 644.90625 492.796875 634.589844 504.449219 C 624.65625 514.574219 613.003906 524.125 606.703125 536.921875 C 606.890625 535.011719 607.082031 533.101562 607.464844 531 C 608.230469 523.742188 611.285156 516.867188 613.578125 510.179688 C 616.824219 501.390625 622.746094 493.941406 628.289062 486.300781 C 635.546875 478.46875 643.378906 470.445312 651.019531 462.804688 C 657.894531 454.972656 664.007812 446.378906 668.976562 437.398438 Z M 668.976562 437.398438 " fill-opacity="1" fill-rule="nonzero"/><path fill="#b54915" d="M 661.523438 442.367188 C 658.277344 447.523438 654.457031 452.492188 650.636719 457.457031 C 641.660156 467.390625 631.535156 476.175781 623.320312 486.875 C 617.398438 495.089844 611.859375 503.683594 609.183594 513.617188 C 606.320312 521.832031 603.644531 531 604.980469 539.789062 C 604.792969 540.359375 604.601562 540.933594 604.410156 541.316406 C 594.859375 531.957031 590.273438 520.113281 595.050781 506.933594 C 596.003906 503.683594 598.679688 501.203125 599.25 497.953125 C 598.871094 494.898438 595.621094 496.808594 594.09375 497.761719 C 587.21875 501.390625 580.339844 505.402344 572.699219 507.3125 C 567.351562 508.460938 561.621094 508.652344 556.078125 508.652344 C 544.238281 507.886719 532.203125 505.59375 521.3125 500.628906 C 511.953125 496.617188 502.210938 490.503906 491.894531 491.648438 C 492.851562 490.886719 493.804688 490.3125 494.570312 489.738281 C 499.917969 486.300781 505.839844 484.390625 511.570312 481.71875 C 515.011719 480.378906 518.832031 479.042969 522.460938 477.515625 C 533.730469 472.929688 545.957031 471.59375 557.800781 469.109375 C 590.082031 463.953125 633.445312 461.660156 661.523438 442.367188 Z M 661.523438 442.367188 " fill-opacity="1" fill-rule="nonzero"/><path fill="#b54915" d="M 667.257812 432.433594 C 667.066406 432.816406 666.875 433.195312 666.492188 433.578125 C 666.300781 433.769531 666.300781 434.152344 666.109375 434.34375 C 665.726562 434.726562 665.535156 434.917969 665.15625 435.105469 C 648.917969 449.433594 626.949219 454.972656 606.128906 458.792969 C 583.207031 463.570312 559.902344 465.289062 537.167969 470.445312 C 524.753906 472.929688 513.289062 478.46875 501.636719 483.628906 C 497.246094 485.347656 493.613281 488.019531 489.792969 490.695312 C 498.773438 475.984375 511.378906 463.378906 527.234375 456.691406 C 532.203125 454.210938 537.167969 452.492188 542.707031 451.34375 C 545.382812 450.960938 545.574219 447.523438 542.707031 447.523438 C 532.964844 445.996094 523.796875 442.175781 515.582031 436.636719 C 494.953125 420.207031 482.535156 395.375 471.648438 371.6875 C 467.828125 364.429688 465.726562 356.40625 462.476562 348.957031 C 459.421875 341.3125 454.835938 334.4375 449.679688 328.132812 C 450.636719 328.324219 451.589844 328.515625 452.164062 328.898438 C 470.691406 334.820312 487.503906 344.945312 505.078125 353.15625 C 522.460938 362.710938 540.988281 370.160156 557.609375 380.855469 C 583.777344 396.519531 609.566406 413.710938 638.410156 423.835938 C 647.960938 426.894531 657.324219 430.714844 667.257812 432.433594 Z M 667.257812 432.433594 " fill-opacity="1" fill-rule="nonzero"/><path fill="#b54915" d="M 654.074219 393.65625 C 660.1875 404.925781 664.582031 417.34375 669.738281 428.996094 C 663.433594 428.039062 657.132812 426.128906 651.210938 424.027344 C 625.230469 416.386719 601.925781 402.824219 578.621094 389.261719 C 567.160156 381.8125 555.316406 374.742188 543.472656 368.058594 C 530.292969 361.371094 516.730469 355.257812 503.738281 348.191406 C 493.234375 343.605469 483.300781 337.875 472.601562 333.292969 C 466.871094 330.617188 460.566406 329.089844 454.457031 326.796875 C 452.546875 326.414062 450.445312 325.652344 448.34375 325.269531 C 464.578125 324.3125 480.433594 319.347656 496.480469 317.246094 C 515.011719 314.378906 533.539062 310.558594 552.449219 313.617188 C 567.542969 314.953125 584.351562 316.863281 595.8125 327.5625 C 598.105469 327.5625 598.296875 325.078125 596.769531 323.742188 C 585.878906 303.683594 592.375 276.367188 599.25 255.164062 C 599.441406 257.453125 599.632812 259.554688 599.441406 260.320312 C 599.824219 269.296875 601.734375 278.085938 604.027344 286.679688 C 605.554688 292.414062 606.890625 298.144531 608.230469 304.066406 C 611.476562 316.863281 616.253906 329.28125 621.984375 341.3125 C 629.816406 360.417969 642.996094 376.460938 654.074219 393.65625 Z M 654.074219 393.65625 " fill-opacity="1" fill-rule="nonzero"/><path fill="#b54915" d="M 703.742188 293.75 C 701.449219 295.851562 700.113281 298.714844 698.582031 301.390625 C 694.191406 309.222656 691.324219 317.820312 687.886719 326.03125 C 681.199219 341.503906 684.832031 358.886719 681.390625 375.125 C 680.246094 383.914062 677.761719 392.507812 675.46875 400.914062 C 673.941406 408.363281 672.414062 415.8125 671.648438 423.261719 C 670.886719 421.351562 669.929688 419.441406 669.355469 417.53125 C 665.34375 408.746094 662.097656 399.578125 657.324219 391.171875 C 649.683594 379.136719 640.511719 367.867188 633.445312 355.257812 C 622.175781 335.582031 613.960938 313.996094 609.183594 291.648438 C 605.554688 279.230469 602.5 266.625 601.542969 253.632812 C 606.511719 261.464844 613.578125 268.726562 621.984375 272.738281 C 632.296875 276.367188 640.894531 283.433594 647.773438 291.839844 C 657.515625 301.390625 662.480469 314.378906 666.683594 327.179688 C 667.066406 329.28125 669.355469 330.808594 670.695312 328.324219 C 672.414062 324.886719 673.75 321.640625 676.042969 318.582031 C 683.300781 308.648438 691.707031 297.953125 703.742188 293.75 Z M 703.742188 293.75 " fill-opacity="1" fill-rule="nonzero"/><path fill="#b54915" d="M 705.269531 293.75 C 705.460938 293.75 705.460938 293.75 705.652344 293.558594 C 702.023438 309.796875 708.707031 325.652344 708.707031 341.886719 C 707.5625 361.179688 701.832031 379.710938 693.042969 396.902344 C 689.796875 402.824219 687.121094 409.128906 683.492188 414.859375 C 680.820312 418.105469 678.144531 421.351562 675.277344 424.410156 C 675.46875 423.074219 675.660156 421.734375 675.851562 420.207031 C 677.1875 404.925781 683.109375 390.40625 685.210938 375.125 C 687.886719 362.519531 686.550781 349.527344 688.269531 336.730469 C 689.605469 329.660156 692.472656 322.976562 695.144531 316.289062 C 698.011719 308.648438 700.304688 300.433594 705.269531 293.75 Z M 705.269531 293.75 " fill-opacity="1" fill-rule="nonzero"/><path fill="#b54915" d="M 313.480469 692.035156 C 314.816406 700.628906 316.917969 709.035156 316.917969 717.824219 C 316.726562 734.058594 311.570312 749.914062 304.3125 764.433594 C 303.929688 763.667969 303.738281 762.902344 303.355469 762.140625 C 300.679688 755.835938 299.535156 749.152344 297.625 742.65625 C 295.332031 732.914062 294.757812 722.980469 294.949219 713.046875 C 294.949219 703.6875 295.523438 694.328125 297.816406 685.347656 C 299.726562 677.515625 301.0625 669.492188 303.929688 662.042969 C 305.074219 672.359375 310.804688 681.910156 313.480469 692.035156 Z M 313.480469 692.035156 " fill-opacity="1" fill-rule="nonzero"/><path fill="#b54915" d="M 300.109375 764.433594 C 299.726562 764.242188 299.152344 764.050781 298.769531 763.859375 C 279.859375 753.160156 266.679688 734.824219 253.308594 718.203125 C 244.328125 705.980469 236.304688 692.988281 230.574219 678.855469 C 223.316406 660.324219 219.6875 640.648438 217.96875 620.78125 C 217.585938 608.746094 221.214844 596.523438 220.261719 584.679688 C 226.183594 596.523438 234.394531 607.027344 244.328125 615.625 C 246.621094 618.109375 248.722656 620.78125 250.824219 623.457031 C 254.070312 627.46875 258.082031 630.332031 261.140625 634.535156 C 265.53125 640.839844 269.734375 647.335938 273.554688 654.019531 C 279.09375 663.570312 283.105469 675.035156 281.769531 686.304688 C 281.386719 687.640625 280.816406 689.742188 282.726562 690.316406 C 284.824219 690.695312 285.207031 688.023438 285.589844 686.304688 C 288.074219 676.179688 294.949219 667.582031 302.019531 660.132812 C 299.726562 664.71875 297.625 671.59375 297.242188 672.933594 C 289.601562 697.382812 288.265625 724.316406 294.949219 749.152344 C 296.480469 754.308594 298.199219 759.464844 300.109375 764.433594 Z M 300.109375 764.433594 " fill-opacity="1" fill-rule="nonzero"/><path fill="#b54915" d="M 288.835938 761.949219 C 289.984375 762.902344 290.9375 763.667969 292.277344 764.433594 C 288.835938 763.667969 285.398438 763.09375 281.960938 762.714844 C 270.5 761.566406 258.847656 762.140625 247.386719 761.757812 C 227.710938 760.804688 208.035156 758.320312 188.742188 753.925781 C 171.929688 751.0625 155.695312 747.8125 139.457031 742.464844 C 125.511719 738.070312 112.140625 732.339844 98.386719 727.375 C 74.316406 716.101562 50.820312 703.304688 27.707031 690.125 C 20.832031 686.496094 14.527344 682.101562 7.839844 678.089844 C 16.628906 678.664062 25.605469 676.179688 34.394531 675.222656 C 51.96875 673.3125 68.96875 667.964844 85.96875 663.378906 C 99.914062 659.558594 114.433594 656.886719 128.949219 655.359375 C 143.085938 653.828125 157.605469 652.300781 171.738281 653.066406 C 179.761719 653.449219 188.359375 652.875 196.191406 655.738281 C 197.527344 656.503906 199.246094 657.457031 200.394531 655.929688 C 201.347656 653.257812 200.203125 650.007812 200.585938 647.144531 C 200.585938 639.882812 201.15625 632.625 202.113281 625.367188 C 204.40625 610.847656 211.472656 597.476562 218.539062 584.679688 C 217.394531 595.566406 215.484375 606.265625 214.53125 617.152344 C 215.101562 638.546875 219.496094 659.941406 227.136719 680 C 233.058594 694.515625 241.464844 708.082031 250.824219 720.6875 C 262.476562 735.777344 273.9375 750.488281 288.835938 761.949219 Z M 288.835938 761.949219 " fill-opacity="1" fill-rule="nonzero"/><path fill="#b54915" d="M 294.757812 768.824219 C 289.984375 770.734375 285.589844 773.601562 281.195312 776.277344 C 270.117188 782.960938 260.566406 791.75 251.96875 801.300781 C 241.65625 811.425781 231.722656 822.121094 222.363281 833.199219 C 209.371094 849.4375 195.046875 864.71875 183.582031 882.292969 C 177.851562 891.652344 172.695312 901.394531 168.683594 911.519531 C 168.683594 911.519531 168.492188 911.710938 168.492188 911.710938 C 166.582031 904.070312 164.863281 896.238281 166.199219 888.214844 C 168.683594 875.035156 174.03125 862.425781 180.335938 850.773438 C 181.671875 848.484375 184.539062 845.617188 183.011719 842.753906 C 181.671875 841.03125 179.382812 841.222656 177.472656 840.84375 C 172.121094 840.269531 166.773438 839.3125 161.425781 838.359375 C 149.964844 835.492188 138.882812 830.910156 128.570312 824.796875 C 119.398438 819.828125 110.230469 814.671875 102.015625 808.367188 C 82.722656 792.703125 67.058594 773.027344 51.011719 754.117188 C 41.078125 742.273438 32.675781 728.902344 24.269531 715.722656 C 16.628906 703.113281 9.941406 689.550781 0.199219 678.089844 C 6.503906 680.953125 12.042969 685.347656 18.15625 689.167969 C 44.136719 704.070312 70.304688 718.777344 97.621094 731.386719 C 123.792969 741.128906 149.964844 751.824219 177.851562 755.835938 C 199.820312 760.230469 221.789062 764.242188 244.136719 765.386719 C 253.6875 765.769531 263.050781 765.578125 272.601562 765.769531 C 280.050781 766.152344 287.5 767.105469 294.757812 768.824219 Z M 294.757812 768.824219 " fill-opacity="1" fill-rule="nonzero"/><path fill="#b54915" d="M 295.332031 772.835938 C 290.9375 779.523438 288.648438 787.164062 285.398438 794.421875 C 275.847656 814.671875 266.871094 835.492188 262.09375 857.460938 C 260.375 865.292969 258.847656 873.316406 259.039062 881.339844 C 259.421875 889.363281 260.375 897.195312 260.566406 905.21875 C 260.757812 906.9375 260.757812 914.578125 261.902344 918.015625 C 261.902344 918.207031 261.710938 918.589844 261.710938 918.78125 C 250.632812 905.027344 245.476562 887.832031 244.136719 870.449219 C 243.757812 868.160156 244.136719 865.484375 244.136719 863.191406 C 244.136719 862.238281 243.566406 861.28125 242.609375 860.898438 C 241.65625 860.515625 240.699219 860.898438 240.316406 861.664062 C 238.980469 863.765625 237.644531 865.675781 236.113281 867.585938 C 231.339844 873.125 227.328125 879.429688 221.980469 884.394531 C 214.910156 890.316406 207.078125 895.855469 198.675781 899.296875 C 190.652344 902.542969 180.71875 902.734375 173.460938 907.507812 C 177.28125 900.441406 180.71875 893.183594 185.113281 886.304688 C 194.855469 871.023438 207.078125 857.84375 218.539062 843.898438 C 228.472656 831.480469 239.363281 819.636719 250.441406 808.367188 C 259.609375 799.390625 267.824219 789.457031 278.714844 782.769531 C 284.0625 779.140625 289.21875 775.128906 295.332031 772.835938 Z M 295.332031 772.835938 " fill-opacity="1" fill-rule="nonzero"/><path fill="#b54915" d="M 300.679688 786.589844 C 301.0625 800.535156 302.019531 814.480469 298.960938 828.234375 C 293.613281 846.382812 287.691406 864.335938 279.476562 881.53125 C 275.273438 888.789062 271.644531 896.621094 267.0625 903.496094 C 265.152344 906.746094 264.195312 910.183594 263.242188 913.8125 C 262.667969 906.171875 263.429688 898.339844 263.050781 890.890625 C 261.710938 876.945312 264.386719 863 268.015625 849.4375 C 272.984375 830.71875 280.816406 813.335938 289.027344 795.761719 C 292.65625 787.929688 294.949219 779.332031 300.300781 772.457031 C 299.34375 777.039062 300.871094 782.199219 300.679688 786.589844 Z M 300.679688 786.589844 " fill-opacity="1" fill-rule="nonzero"/><path fill="#b54915" d="M 1049.304688 234.53125 C 1051.976562 242.363281 1053.886719 250.578125 1053.507812 258.984375 C 1052.359375 274.265625 1047.203125 288.78125 1043.191406 303.492188 C 1043.382812 298.335938 1043.574219 292.984375 1043.191406 287.828125 C 1043.191406 280.378906 1041.664062 273.117188 1041.089844 265.667969 C 1039.5625 252.105469 1038.222656 238.542969 1039.179688 224.980469 C 1039.179688 217.339844 1038.988281 209.507812 1040.324219 202.058594 C 1040.898438 207.597656 1041.664062 213.136719 1043.765625 218.675781 C 1044.71875 221.734375 1045.675781 224.597656 1047.011719 227.464844 C 1047.777344 229.566406 1048.539062 232.046875 1049.304688 234.53125 Z M 1049.304688 234.53125 " fill-opacity="1" fill-rule="nonzero"/><path fill="#b54915" d="M 1039.753906 277.703125 C 1040.707031 286.871094 1040.515625 296.425781 1040.132812 305.59375 C 1040.324219 306.738281 1039.945312 308.648438 1039.945312 310.558594 C 1037.078125 306.167969 1034.785156 301.582031 1032.113281 297.1875 C 1025.425781 286.871094 1017.976562 276.75 1010.144531 267.386719 C 1002.121094 256.691406 994.480469 245.992188 985.121094 236.25 C 974.996094 224.027344 961.242188 215.8125 951.308594 203.203125 C 948.632812 200.53125 946.152344 197.472656 944.621094 194.035156 C 944.242188 193.460938 943.859375 192.890625 943.667969 192.316406 C 943.667969 192.125 943.667969 191.933594 943.667969 191.742188 C 955.511719 200.339844 969.835938 203.96875 983.019531 209.699219 C 989.894531 212.5625 996.964844 215.8125 1001.738281 221.734375 C 1007.851562 228.992188 1015.109375 236.25 1016.066406 246.183594 C 1017.019531 247.710938 1019.121094 246.566406 1018.929688 245.039062 C 1019.121094 241.601562 1019.886719 238.160156 1020.460938 234.722656 C 1023.515625 220.777344 1031.921875 208.554688 1040.324219 197.28125 C 1040.324219 197.664062 1040.324219 198.046875 1040.515625 198.429688 C 1039.753906 200.722656 1038.988281 203.011719 1038.605469 205.304688 C 1037.84375 210.464844 1038.035156 215.8125 1037.652344 221.160156 C 1035.742188 239.878906 1037.652344 258.792969 1039.753906 277.703125 Z M 1039.753906 277.703125 " fill-opacity="1" fill-rule="nonzero"/><path fill="#b54915" d="M 1028.863281 297.570312 C 1031.730469 302.15625 1034.402344 306.738281 1037.078125 311.324219 C 1024.46875 309.414062 1011.289062 310.175781 998.683594 312.277344 C 984.546875 314.761719 970.984375 320.109375 957.421875 325.078125 C 942.902344 331.191406 929.339844 339.023438 914.058594 343.226562 C 894.957031 349.335938 875.089844 352.203125 855.222656 354.878906 C 851.976562 355.832031 848.347656 355.449219 844.71875 355.640625 C 861.335938 344.753906 875.664062 330.425781 889.035156 315.71875 C 894.382812 309.03125 899.542969 302.15625 904.890625 295.46875 C 911.765625 288.019531 919.597656 281.523438 928.003906 275.601562 C 936.601562 269.488281 945.960938 264.714844 955.703125 260.894531 C 957.996094 259.9375 960.476562 259.175781 962.578125 258.21875 C 963.152344 257.835938 963.535156 257.453125 963.726562 256.691406 C 963.917969 255.734375 963.152344 254.78125 962.578125 254.207031 C 959.90625 251.535156 957.421875 248.667969 955.320312 245.613281 C 946.722656 230.902344 945.386719 213.328125 943.667969 196.519531 C 944.242188 197.472656 944.621094 198.238281 945.003906 199.191406 C 949.589844 205.113281 954.9375 210.652344 960.09375 216.195312 C 965.0625 220.777344 970.410156 224.980469 975.570312 229.566406 C 988.367188 241.789062 998.492188 255.925781 1008.617188 270.253906 C 1015.875 279.039062 1022.371094 288.210938 1028.863281 297.570312 Z M 1028.863281 297.570312 " fill-opacity="1" fill-rule="nonzero"/><path fill="#b54915" d="M 1035.550781 314.570312 C 1035.167969 315.71875 1034.785156 316.863281 1034.210938 317.4375 C 1025.425781 334.628906 1018.738281 352.96875 1008.996094 369.777344 C 1002.695312 380.664062 996.773438 391.9375 992.1875 403.589844 C 989.320312 411.230469 985.121094 418.488281 985.691406 426.894531 C 985.691406 434.34375 985.691406 441.984375 987.03125 449.433594 C 980.34375 441.21875 975.949219 431.476562 974.230469 420.972656 C 972.320312 410.847656 972.128906 400.148438 976.140625 390.40625 C 977.859375 385.25 980.535156 379.902344 982.636719 374.933594 C 983.589844 373.789062 983.402344 371.878906 981.679688 371.6875 C 981.109375 371.6875 980.726562 371.6875 980.34375 372.070312 C 978.433594 373.789062 976.140625 375.125 973.660156 376.460938 C 963.152344 381.238281 952.453125 385.632812 941.183594 388.117188 C 929.148438 390.027344 916.734375 388.6875 905.082031 385.632812 C 897.820312 383.914062 890.371094 382.765625 883.304688 380.285156 C 867.449219 375.316406 854.269531 363.855469 838.222656 359.460938 C 838.796875 359.078125 839.367188 358.886719 839.75 358.507812 C 841.085938 358.125 842.617188 358.125 843.953125 358.125 C 848.15625 358.316406 852.167969 357.933594 856.371094 357.359375 C 879.867188 354.496094 902.980469 350.101562 925.328125 342.078125 C 937.9375 337.875 949.398438 330.808594 961.816406 326.414062 C 985.3125 318.007812 1010.71875 310.175781 1035.550781 314.570312 Z M 1035.550781 314.570312 " fill-opacity="1" fill-rule="nonzero"/><path fill="#b54915" d="M 1062.484375 402.058594 C 1054.078125 402.632812 1045.101562 401.679688 1037.84375 397.09375 C 1033.066406 393.65625 1029.4375 388.6875 1025.808594 383.914062 C 1025.042969 382.003906 1022.371094 382.195312 1022.179688 384.292969 C 1022.371094 391.554688 1020.269531 398.429688 1017.59375 405.117188 C 1013.773438 416.003906 1006.132812 424.601562 999.0625 433.386719 C 995.054688 438.738281 990.46875 444.46875 989.511719 451.34375 C 988.175781 441.410156 988.367188 431.09375 989.132812 421.164062 C 993.332031 406.261719 1000.210938 392.316406 1007.277344 378.371094 C 1018.167969 360.035156 1026.378906 340.550781 1035.933594 321.257812 C 1036.886719 319.15625 1038.03125 317.054688 1038.988281 314.953125 C 1039.371094 314.953125 1039.753906 315.144531 1040.132812 315.144531 C 1040.898438 323.167969 1038.414062 331.382812 1039.941406 339.402344 C 1042.042969 361.753906 1049.6875 383.914062 1062.484375 402.058594 Z M 1062.484375 402.058594 " fill-opacity="1" fill-rule="nonzero"/><path fill="#b54915" d="M 1064.585938 401.867188 C 1064.394531 401.867188 1064.203125 401.867188 1064.011719 401.867188 C 1063.25 400.148438 1061.527344 398.238281 1061.339844 397.476562 C 1056.945312 390.027344 1053.695312 381.8125 1050.832031 373.789062 C 1046.4375 361.179688 1043.574219 347.617188 1042.425781 334.246094 C 1042.042969 328.707031 1042.617188 323.167969 1042.617188 317.628906 C 1043 318.390625 1043.574219 319.15625 1043.953125 319.730469 C 1047.203125 329.28125 1055.035156 336.539062 1057.898438 346.28125 C 1063.820312 364.046875 1058.855469 383.722656 1064.585938 401.867188 Z M 1064.585938 401.867188 " fill-opacity="1" fill-rule="nonzero"/><path fill="#b54915" d="M 1188.941406 163.472656 C 1189.707031 163.851562 1190.46875 164.042969 1191.234375 164.425781 C 1190.28125 166.71875 1189.132812 169.964844 1188.558594 171.113281 C 1181.109375 187.347656 1169.457031 201.101562 1158.1875 214.855469 C 1143.097656 233.386719 1126.476562 251.34375 1107.375 265.859375 C 1097.824219 273.117188 1087.316406 279.039062 1077.003906 285.152344 C 1071.460938 288.972656 1065.921875 292.984375 1059.808594 296.042969 C 1058.855469 296.613281 1053.316406 299.097656 1048.539062 301.964844 C 1049.113281 299.863281 1049.6875 297.761719 1050.066406 295.660156 C 1050.257812 295.660156 1050.449219 295.46875 1050.832031 295.46875 C 1055.988281 292.414062 1061.71875 290.121094 1067.070312 287.253906 C 1088.464844 276.367188 1108.519531 262.804688 1125.332031 245.613281 C 1139.847656 229.949219 1153.03125 213.328125 1166.019531 196.519531 C 1174.234375 185.4375 1182.257812 175.125 1188.941406 163.472656 Z M 1188.941406 163.472656 " fill-opacity="1" fill-rule="nonzero"/><path fill="#b54915" d="M 1194.101562 140.167969 C 1194.480469 145.898438 1194.101562 151.246094 1192.378906 156.59375 C 1191.617188 156.59375 1190.660156 156.785156 1189.898438 156.976562 C 1185.3125 151.628906 1181.875 145.132812 1178.625 138.828125 C 1169.265625 117.050781 1154.367188 81.332031 1127.816406 77.703125 C 1127.625 77.703125 1127.050781 77.703125 1126.476562 77.703125 C 1132.398438 75.980469 1138.703125 75.027344 1144.816406 74.453125 C 1148.0625 74.835938 1151.308594 75.21875 1154.367188 75.980469 C 1157.042969 76.9375 1159.332031 78.65625 1162.007812 79.230469 C 1163.726562 79.613281 1164.300781 77.703125 1163.917969 76.363281 C 1161.816406 68.339844 1160.863281 59.554688 1162.773438 51.339844 C 1167.355469 37.96875 1174.617188 25.742188 1179.582031 12.5625 C 1180.535156 18.675781 1181.109375 24.789062 1180.726562 31.28125 C 1179.964844 40.261719 1178.4375 49.429688 1178.4375 58.597656 C 1178.625 66.621094 1179.964844 74.453125 1181.683594 82.285156 C 1182.828125 88.207031 1184.738281 94.128906 1187.03125 99.667969 C 1189.324219 104.636719 1190.46875 109.984375 1191.808594 115.332031 C 1193.144531 123.355469 1194.101562 131.761719 1194.101562 140.167969 Z M 1194.101562 140.167969 " fill-opacity="1" fill-rule="nonzero"/><path fill="#b54915" d="M 1189.324219 160.605469 C 1189.324219 160.605469 1189.132812 160.605469 1189.132812 160.605469 C 1178.625 154.875 1169.074219 146.851562 1161.816406 137.300781 C 1157.804688 131.378906 1152.457031 126.03125 1149.398438 119.535156 C 1145.390625 111.511719 1141.1875 103.871094 1137.175781 95.65625 C 1133.546875 89.925781 1129.152344 84.003906 1123.613281 79.804688 C 1143.859375 80.566406 1155.511719 101.199219 1165.0625 116.671875 C 1170.796875 128.132812 1174.234375 140.738281 1181.875 151.4375 C 1183.785156 154.300781 1185.503906 157.167969 1187.988281 159.460938 C 1188.179688 159.839844 1188.558594 160.222656 1189.132812 160.414062 C 1189.132812 160.414062 1189.132812 160.605469 1189.324219 160.605469 Z M 1189.324219 160.605469 " fill-opacity="1" fill-rule="nonzero"/><g clip-path="url(#352e8e5728)"><path fill="#b54915" d="M 1311.769531 0.527344 C 1308.714844 4.921875 1304.320312 8.550781 1300.691406 12.5625 C 1287.890625 25.550781 1272.039062 35.101562 1259.238281 48.285156 C 1253.316406 54.207031 1248.160156 60.699219 1243 67.195312 C 1235.550781 76.746094 1227.71875 86.105469 1221.796875 96.613281 C 1215.875 107.691406 1210.910156 119.152344 1205.371094 130.425781 C 1202.886719 136.726562 1200.023438 142.839844 1196.964844 148.761719 C 1197.347656 145.515625 1197.347656 142.078125 1197.15625 138.828125 C 1197.347656 127.175781 1195.4375 115.714844 1192.378906 104.636719 C 1188.558594 94.894531 1185.3125 85.152344 1183.402344 74.835938 C 1181.683594 66.429688 1181.109375 57.835938 1182.066406 49.238281 C 1183.019531 38.921875 1185.121094 28.417969 1182.636719 18.101562 C 1182.449219 17.148438 1182.257812 16 1182.066406 15.046875 C 1187.796875 21.160156 1196.582031 23.832031 1202.886719 29.371094 C 1208.425781 33.191406 1213.011719 38.160156 1217.597656 42.933594 C 1218.167969 43.699219 1218.742188 44.464844 1219.695312 44.65625 C 1220.84375 44.84375 1221.605469 43.890625 1222.179688 43.316406 C 1226 38.734375 1230.96875 35.292969 1236.316406 32.429688 C 1247.777344 26.125 1259.621094 20.394531 1272.417969 17.527344 C 1285.980469 13.328125 1299.164062 7.40625 1311.769531 0.527344 Z M 1311.769531 0.527344 " fill-opacity="1" fill-rule="nonzero"/></g><path fill="#b54915" d="M 1304.703125 77.703125 C 1310.433594 78.847656 1316.164062 79.613281 1322.085938 79.230469 C 1314.0625 82.285156 1306.613281 86.871094 1298.78125 90.117188 C 1273.183594 101.386719 1251.214844 118.960938 1228.675781 135.199219 C 1218.359375 142.457031 1207.664062 149.335938 1196.964844 155.832031 C 1198.300781 153.347656 1199.832031 150.863281 1200.976562 148.1875 C 1205.5625 138.636719 1209.382812 128.894531 1214.347656 119.535156 C 1219.316406 108.648438 1224.28125 97.566406 1230.96875 87.632812 C 1242.621094 71.78125 1254.464844 55.542969 1269.363281 42.363281 C 1280.441406 33 1292.476562 24.597656 1302.601562 13.898438 C 1305.847656 10.269531 1309.667969 6.832031 1312.152344 2.628906 C 1311.007812 11.605469 1310.816406 20.585938 1308.714844 29.371094 C 1305.847656 41.214844 1301.457031 52.867188 1295.34375 63.375 C 1290.949219 70.058594 1286.363281 76.9375 1280.632812 82.285156 C 1278.722656 84.003906 1281.207031 86.296875 1282.925781 84.960938 C 1288.847656 79.613281 1297.0625 77.320312 1304.703125 77.703125 Z M 1304.703125 77.703125 " fill-opacity="1" fill-rule="nonzero"/><g clip-path="url(#5902b430bb)"><path fill="#b54915" d="M 1330.300781 78.082031 C 1319.03125 93.9375 1304.511719 107.882812 1286.9375 116.863281 C 1285.792969 117.625 1284.070312 117.625 1283.308594 118.773438 C 1282.925781 119.535156 1283.117188 120.492188 1283.691406 121.0625 C 1285.792969 122.210938 1288.082031 119.917969 1290.375 120.109375 C 1294.195312 119.917969 1297.632812 121.828125 1301.074219 123.355469 C 1308.90625 126.984375 1315.398438 132.90625 1321.511719 138.828125 C 1316.929688 137.109375 1313.109375 134.054688 1308.332031 133.289062 C 1297.632812 131.1875 1286.171875 130.613281 1275.476562 133.097656 C 1263.824219 135.773438 1253.316406 140.546875 1241.855469 143.988281 C 1229.4375 147.425781 1217.40625 152.390625 1204.796875 155.449219 C 1204.222656 155.640625 1203.84375 155.640625 1203.269531 155.640625 C 1224.855469 142.839844 1244.53125 126.984375 1264.96875 112.277344 C 1277.003906 104.445312 1289.421875 96.613281 1302.601562 90.691406 C 1311.960938 86.871094 1320.558594 81.140625 1330.300781 78.082031 Z M 1330.300781 78.082031 " fill-opacity="1" fill-rule="nonzero"/></g><path fill="#b54915" d="M 1311.386719 136.726562 C 1313.109375 137.683594 1315.019531 138.445312 1316.929688 139.210938 C 1309.289062 139.59375 1302.027344 142.457031 1294.769531 145.132812 C 1282.351562 148.761719 1270.507812 154.109375 1258.476562 158.695312 C 1244.914062 163.851562 1230.203125 164.808594 1215.683594 164.808594 C 1209 164.617188 1202.503906 164.042969 1195.820312 162.324219 C 1195.246094 162.132812 1194.289062 161.941406 1193.527344 162.132812 C 1193.527344 162.132812 1193.527344 161.941406 1193.71875 161.941406 C 1194.671875 161.179688 1195.4375 160.605469 1196.390625 160.03125 C 1199.449219 159.839844 1202.503906 159.839844 1205.371094 159.078125 C 1219.695312 155.257812 1233.449219 149.71875 1247.585938 145.515625 C 1261.722656 140.929688 1275.859375 133.863281 1291.140625 134.4375 C 1298.015625 134.625 1304.894531 135.007812 1311.386719 136.726562 Z M 1311.386719 136.726562 " fill-opacity="1" fill-rule="nonzero"/></svg>