<svg xmlns="http://www.w3.org/2000/svg" xmlns:xlink="http://www.w3.org/1999/xlink" width="2500" zoomAndPan="magnify" viewBox="0 0 1874.88 640.499981" height="854" preserveAspectRatio="xMidYMid meet" version="1.0"><defs><g/><clipPath id="1db7257ba7"><path d="M 0.671875 7.433594 L 628.679688 7.433594 L 628.679688 321.441406 L 0.671875 321.441406 Z M 0.671875 7.433594 " clip-rule="nonzero"/></clipPath><clipPath id="b88bc44139"><path d="M 588 318.554688 L 1215.925781 318.554688 L 1215.925781 632.558594 L 588 632.558594 Z M 588 318.554688 " clip-rule="nonzero"/></clipPath><clipPath id="3b10c9c65c"><path d="M 113.042969 128.410156 L 516 128.410156 L 516 531.597656 L 113.042969 531.597656 Z M 113.042969 128.410156 " clip-rule="nonzero"/></clipPath><clipPath id="007fe505a0"><path d="M 701.644531 106.164062 L 1104.828125 106.164062 L 1104.828125 509.347656 L 701.644531 509.347656 Z M 701.644531 106.164062 " clip-rule="nonzero"/></clipPath><clipPath id="921e37e497"><path d="M 1181.589844 7.433594 L 1811.847656 7.433594 L 1811.847656 322.191406 L 1181.589844 322.191406 Z M 1181.589844 7.433594 " clip-rule="nonzero"/></clipPath><clipPath id="ea6ab2c0f2"><path d="M 1294.953125 129.671875 L 1698 129.671875 L 1698 532.855469 L 1294.953125 532.855469 Z M 1294.953125 129.671875 " clip-rule="nonzero"/></clipPath><clipPath id="154d07887e"><path d="M 528.246094 316.613281 L 688.113281 316.613281 L 688.113281 424.101562 L 528.246094 424.101562 Z M 528.246094 316.613281 " clip-rule="nonzero"/></clipPath><clipPath id="41d06cd9b5"><path d="M 528.246094 316.613281 L 608.179688 424.101562 L 688.113281 316.613281 Z M 528.246094 316.613281 " clip-rule="nonzero"/></clipPath><clipPath id="6478c498ec"><path d="M 1714.34375 321.257812 L 1874.089844 321.257812 L 1874.089844 428.75 L 1714.34375 428.75 Z M 1714.34375 321.257812 " clip-rule="nonzero"/></clipPath><clipPath id="d6d815d7f8"><path d="M 1714.34375 321.257812 L 1794.277344 428.75 L 1874.207031 321.257812 Z M 1714.34375 321.257812 " clip-rule="nonzero"/></clipPath></defs><g clip-path="url(#1db7257ba7)"><path fill="#8ebe53" d="M 628.3125 321.253906 L 594.574219 321.253906 C 594.574219 166.816406 468.929688 41.171875 314.496094 41.171875 C 160.054688 41.171875 34.410156 166.816406 34.410156 321.253906 L 0.671875 321.253906 C 0.671875 148.214844 141.453125 7.433594 314.492188 7.433594 C 487.535156 7.433594 628.3125 148.214844 628.3125 321.253906 Z M 628.3125 321.253906 " fill-opacity="1" fill-rule="nonzero"/></g><g clip-path="url(#b88bc44139)"><path fill="#f0a893" d="M 588.28125 318.742188 L 622.023438 318.742188 C 622.023438 473.175781 747.667969 598.820312 902.101562 598.820312 C 1056.542969 598.820312 1182.1875 473.175781 1182.1875 318.742188 L 1215.925781 318.742188 C 1215.925781 491.78125 1075.144531 632.558594 902.105469 632.558594 C 729.0625 632.558594 588.28125 491.78125 588.28125 318.742188 Z M 588.28125 318.742188 " fill-opacity="1" fill-rule="nonzero"/></g><g clip-path="url(#3b10c9c65c)"><path fill="#8ebe53" d="M 515.949219 329.863281 C 515.949219 333.160156 515.867188 336.457031 515.703125 339.75 C 515.542969 343.042969 515.300781 346.328125 514.976562 349.609375 C 514.652344 352.890625 514.25 356.160156 513.765625 359.421875 C 513.28125 362.683594 512.71875 365.933594 512.078125 369.164062 C 511.433594 372.398438 510.710938 375.613281 509.910156 378.8125 C 509.109375 382.011719 508.230469 385.1875 507.273438 388.34375 C 506.316406 391.496094 505.28125 394.628906 504.171875 397.730469 C 503.058594 400.835938 501.875 403.910156 500.613281 406.957031 C 499.351562 410.003906 498.015625 413.015625 496.605469 415.996094 C 495.195312 418.976562 493.714844 421.921875 492.160156 424.828125 C 490.605469 427.734375 488.980469 430.601562 487.285156 433.429688 C 485.589844 436.257812 483.828125 439.042969 481.996094 441.785156 C 480.164062 444.527344 478.265625 447.222656 476.304688 449.867188 C 474.339844 452.515625 472.3125 455.117188 470.21875 457.664062 C 468.128906 460.210938 465.976562 462.707031 463.761719 465.152344 C 461.546875 467.59375 459.273438 469.980469 456.941406 472.3125 C 454.613281 474.644531 452.226562 476.917969 449.78125 479.128906 C 447.339844 481.34375 444.84375 483.496094 442.296875 485.589844 C 439.746094 487.679688 437.148438 489.707031 434.5 491.671875 C 431.851562 493.636719 429.15625 495.535156 426.414062 497.367188 C 423.675781 499.195312 420.890625 500.960938 418.0625 502.65625 C 415.234375 504.351562 412.367188 505.976562 409.460938 507.527344 C 406.550781 509.082031 403.605469 510.566406 400.628906 511.972656 C 397.648438 513.382812 394.632812 514.71875 391.585938 515.980469 C 388.542969 517.242188 385.464844 518.429688 382.363281 519.539062 C 379.257812 520.652344 376.128906 521.683594 372.972656 522.640625 C 369.820312 523.597656 366.640625 524.476562 363.445312 525.277344 C 360.246094 526.078125 357.03125 526.800781 353.796875 527.445312 C 350.5625 528.089844 347.316406 528.652344 344.054688 529.136719 C 340.792969 529.621094 337.523438 530.023438 334.242188 530.347656 C 330.960938 530.667969 327.671875 530.910156 324.378906 531.074219 C 321.085938 531.234375 317.792969 531.316406 314.496094 531.316406 C 311.199219 531.316406 307.902344 531.234375 304.609375 531.074219 C 301.316406 530.910156 298.03125 530.667969 294.75 530.347656 C 291.46875 530.023438 288.195312 529.621094 284.9375 529.136719 C 281.675781 528.652344 278.425781 528.089844 275.195312 527.445312 C 271.960938 526.800781 268.746094 526.078125 265.546875 525.277344 C 262.347656 524.476562 259.171875 523.597656 256.015625 522.640625 C 252.863281 521.683594 249.730469 520.652344 246.628906 519.539062 C 243.523438 518.429688 240.449219 517.242188 237.402344 515.980469 C 234.355469 514.71875 231.34375 513.382812 228.363281 511.972656 C 225.382812 510.566406 222.4375 509.082031 219.53125 507.527344 C 216.625 505.976562 213.757812 504.351562 210.929688 502.65625 C 208.101562 500.960938 205.316406 499.195312 202.574219 497.367188 C 199.832031 495.535156 197.136719 493.636719 194.492188 491.671875 C 191.84375 489.707031 189.242188 487.679688 186.695312 485.589844 C 184.148438 483.496094 181.652344 481.34375 179.207031 479.128906 C 176.765625 476.917969 174.378906 474.644531 172.046875 472.3125 C 169.714844 469.980469 167.441406 467.59375 165.230469 465.152344 C 163.015625 462.707031 160.863281 460.210938 158.769531 457.664062 C 156.679688 455.117188 154.652344 452.515625 152.6875 449.867188 C 150.722656 447.222656 148.824219 444.527344 146.992188 441.785156 C 145.164062 439.042969 143.398438 436.257812 141.703125 433.429688 C 140.007812 430.601562 138.382812 427.734375 136.832031 424.828125 C 135.277344 421.921875 133.792969 418.976562 132.382812 415.996094 C 130.976562 413.015625 129.640625 410.003906 128.378906 406.957031 C 127.117188 403.910156 125.929688 400.835938 124.820312 397.730469 C 123.707031 394.628906 122.675781 391.496094 121.71875 388.34375 C 120.761719 385.1875 119.882812 382.011719 119.082031 378.8125 C 118.277344 375.613281 117.558594 372.398438 116.914062 369.164062 C 116.269531 365.933594 115.707031 362.683594 115.222656 359.421875 C 114.738281 356.160156 114.335938 352.890625 114.011719 349.609375 C 113.691406 346.328125 113.449219 343.042969 113.285156 339.75 C 113.125 336.457031 113.042969 333.160156 113.042969 329.863281 C 113.042969 326.566406 113.125 323.273438 113.285156 319.980469 C 113.449219 316.6875 113.691406 313.398438 114.011719 310.117188 C 114.335938 306.835938 114.738281 303.566406 115.222656 300.304688 C 115.707031 297.042969 116.269531 293.796875 116.914062 290.5625 C 117.558594 287.328125 118.277344 284.113281 119.082031 280.914062 C 119.882812 277.71875 120.761719 274.539062 121.71875 271.386719 C 122.675781 268.230469 123.707031 265.101562 124.820312 261.996094 C 125.929688 258.894531 127.117188 255.816406 128.378906 252.773438 C 129.640625 249.726562 130.976562 246.710938 132.382812 243.730469 C 133.792969 240.75 135.277344 237.808594 136.832031 234.898438 C 138.382812 231.992188 140.007812 229.125 141.703125 226.296875 C 143.398438 223.46875 145.164062 220.683594 146.992188 217.941406 C 148.824219 215.203125 150.722656 212.507812 152.6875 209.859375 C 154.652344 207.210938 156.679688 204.613281 158.769531 202.0625 C 160.863281 199.515625 163.015625 197.019531 165.230469 194.578125 C 167.441406 192.132812 169.714844 189.746094 172.046875 187.414062 C 174.378906 185.085938 176.765625 182.8125 179.207031 180.597656 C 181.652344 178.382812 184.148438 176.230469 186.695312 174.140625 C 189.242188 172.046875 191.84375 170.019531 194.492188 168.054688 C 197.136719 166.09375 199.832031 164.195312 202.574219 162.363281 C 205.316406 160.53125 208.101562 158.769531 210.929688 157.074219 C 213.757812 155.378906 216.625 153.753906 219.53125 152.199219 C 222.4375 150.644531 225.382812 149.164062 228.363281 147.753906 C 231.34375 146.34375 234.355469 145.007812 237.402344 143.746094 C 240.449219 142.484375 243.523438 141.296875 246.628906 140.1875 C 249.730469 139.078125 252.863281 138.042969 256.015625 137.085938 C 259.171875 136.128906 262.347656 135.25 265.546875 134.449219 C 268.746094 133.648438 271.960938 132.925781 275.195312 132.28125 C 278.425781 131.640625 281.675781 131.074219 284.9375 130.59375 C 288.195312 130.109375 291.46875 129.707031 294.75 129.382812 C 298.03125 129.058594 301.316406 128.816406 304.609375 128.65625 C 307.902344 128.492188 311.199219 128.410156 314.496094 128.410156 C 317.792969 128.410156 321.085938 128.492188 324.378906 128.65625 C 327.671875 128.816406 330.960938 129.058594 334.242188 129.382812 C 337.523438 129.707031 340.792969 130.109375 344.054688 130.59375 C 347.316406 131.074219 350.5625 131.640625 353.796875 132.28125 C 357.03125 132.925781 360.246094 133.648438 363.445312 134.449219 C 366.640625 135.25 369.820312 136.128906 372.972656 137.085938 C 376.128906 138.042969 379.257812 139.078125 382.363281 140.1875 C 385.464844 141.296875 388.542969 142.484375 391.585938 143.746094 C 394.632812 145.007812 397.648438 146.34375 400.628906 147.753906 C 403.609375 149.164062 406.550781 150.644531 409.460938 152.199219 C 412.367188 153.753906 415.234375 155.378906 418.0625 157.074219 C 420.890625 158.769531 423.675781 160.53125 426.414062 162.363281 C 429.15625 164.195312 431.851562 166.09375 434.5 168.054688 C 437.148438 170.019531 439.746094 172.046875 442.296875 174.140625 C 444.84375 176.230469 447.339844 178.382812 449.78125 180.597656 C 452.226562 182.8125 454.613281 185.085938 456.941406 187.414062 C 459.273438 189.746094 461.546875 192.132812 463.761719 194.578125 C 465.976562 197.019531 468.128906 199.515625 470.21875 202.0625 C 472.3125 204.613281 474.339844 207.210938 476.304688 209.859375 C 478.265625 212.507812 480.164062 215.203125 481.996094 217.941406 C 483.828125 220.683594 485.589844 223.46875 487.285156 226.296875 C 488.980469 229.125 490.605469 231.992188 492.160156 234.898438 C 493.714844 237.808594 495.195312 240.75 496.605469 243.730469 C 498.015625 246.710938 499.351562 249.726562 500.613281 252.773438 C 501.875 255.816406 503.058594 258.894531 504.171875 261.996094 C 505.28125 265.101562 506.316406 268.230469 507.273438 271.386719 C 508.230469 274.539062 509.109375 277.71875 509.910156 280.914062 C 510.710938 284.113281 511.433594 287.328125 512.078125 290.5625 C 512.71875 293.796875 513.28125 297.042969 513.765625 300.304688 C 514.25 303.566406 514.652344 306.835938 514.976562 310.117188 C 515.300781 313.398438 515.542969 316.6875 515.703125 319.980469 C 515.867188 323.273438 515.949219 326.566406 515.949219 329.863281 Z M 515.949219 329.863281 " fill-opacity="1" fill-rule="nonzero"/></g><g clip-path="url(#007fe505a0)"><path fill="#f0a893" d="M 1104.546875 307.617188 C 1104.546875 310.914062 1104.464844 314.207031 1104.304688 317.5 C 1104.144531 320.792969 1103.902344 324.082031 1103.578125 327.363281 C 1103.253906 330.644531 1102.851562 333.914062 1102.367188 337.175781 C 1101.882812 340.4375 1101.320312 343.683594 1100.675781 346.917969 C 1100.035156 350.152344 1099.3125 353.367188 1098.511719 356.566406 C 1097.710938 359.761719 1096.832031 362.941406 1095.875 366.09375 C 1094.914062 369.25 1093.882812 372.378906 1092.769531 375.484375 C 1091.660156 378.585938 1090.472656 381.664062 1089.214844 384.707031 C 1087.953125 387.753906 1086.617188 390.765625 1085.207031 393.746094 C 1083.796875 396.726562 1082.316406 399.671875 1080.761719 402.578125 C 1079.207031 405.488281 1077.582031 408.355469 1075.886719 411.183594 C 1074.191406 414.011719 1072.429688 416.796875 1070.597656 419.535156 C 1068.765625 422.277344 1066.867188 424.972656 1064.902344 427.621094 C 1062.9375 430.269531 1060.910156 432.867188 1058.820312 435.414062 C 1056.730469 437.964844 1054.574219 440.460938 1052.363281 442.902344 C 1050.148438 445.347656 1047.875 447.734375 1045.542969 450.0625 C 1043.210938 452.394531 1040.824219 454.667969 1038.382812 456.882812 C 1035.941406 459.097656 1033.445312 461.25 1030.894531 463.339844 C 1028.347656 465.433594 1025.75 467.460938 1023.101562 469.421875 C 1020.453125 471.386719 1017.757812 473.285156 1015.015625 475.117188 C 1012.273438 476.949219 1009.492188 478.710938 1006.664062 480.40625 C 1003.835938 482.101562 1000.96875 483.726562 998.058594 485.28125 C 995.152344 486.835938 992.207031 488.316406 989.226562 489.726562 C 986.246094 491.136719 983.234375 492.472656 980.1875 493.734375 C 977.140625 494.996094 974.066406 496.179688 970.960938 497.292969 C 967.859375 498.402344 964.730469 499.4375 961.574219 500.394531 C 958.417969 501.351562 955.242188 502.230469 952.042969 503.03125 C 948.847656 503.832031 945.628906 504.554688 942.398438 505.195312 C 939.164062 505.839844 935.914062 506.402344 932.65625 506.886719 C 929.394531 507.371094 926.121094 507.773438 922.839844 508.097656 C 919.558594 508.421875 916.273438 508.664062 912.980469 508.824219 C 909.6875 508.988281 906.390625 509.066406 903.09375 509.066406 C 899.796875 509.066406 896.503906 508.988281 893.210938 508.824219 C 889.917969 508.664062 886.628906 508.421875 883.351562 508.097656 C 880.070312 507.773438 876.796875 507.371094 873.535156 506.886719 C 870.273438 506.402344 867.027344 505.839844 863.792969 505.195312 C 860.558594 504.554688 857.34375 503.832031 854.148438 503.03125 C 850.949219 502.230469 847.773438 501.351562 844.617188 500.394531 C 841.460938 499.4375 838.332031 498.402344 835.226562 497.292969 C 832.125 496.179688 829.050781 494.996094 826.003906 493.734375 C 822.957031 492.472656 819.945312 491.136719 816.964844 489.726562 C 813.984375 488.316406 811.039062 486.835938 808.132812 485.28125 C 805.222656 483.726562 802.355469 482.101562 799.527344 480.40625 C 796.699219 478.710938 793.914062 476.949219 791.175781 475.117188 C 788.433594 473.285156 785.738281 471.386719 783.089844 469.421875 C 780.441406 467.460938 777.84375 465.433594 775.296875 463.339844 C 772.746094 461.25 770.25 459.097656 767.808594 456.882812 C 765.367188 454.667969 762.980469 452.394531 760.648438 450.0625 C 758.316406 447.734375 756.042969 445.347656 753.828125 442.902344 C 751.617188 440.460938 749.460938 437.964844 747.371094 435.414062 C 745.28125 432.867188 743.25 430.269531 741.289062 427.621094 C 739.324219 424.972656 737.425781 422.277344 735.59375 419.535156 C 733.761719 416.796875 732 414.011719 730.304688 411.183594 C 728.609375 408.355469 726.984375 405.488281 725.429688 402.578125 C 723.875 399.671875 722.394531 396.726562 720.984375 393.746094 C 719.574219 390.765625 718.238281 387.753906 716.976562 384.707031 C 715.714844 381.664062 714.53125 378.585938 713.417969 375.484375 C 712.308594 372.378906 711.273438 369.25 710.316406 366.09375 C 709.359375 362.941406 708.480469 359.761719 707.679688 356.566406 C 706.878906 353.367188 706.15625 350.152344 705.515625 346.917969 C 704.871094 343.683594 704.308594 340.4375 703.824219 337.175781 C 703.339844 333.914062 702.9375 330.644531 702.613281 327.363281 C 702.289062 324.082031 702.046875 320.792969 701.886719 317.5 C 701.722656 314.207031 701.644531 310.914062 701.644531 307.617188 C 701.644531 304.320312 701.722656 301.023438 701.886719 297.730469 C 702.046875 294.4375 702.289062 291.152344 702.613281 287.871094 C 702.9375 284.589844 703.339844 281.316406 703.824219 278.058594 C 704.308594 274.796875 704.871094 271.546875 705.515625 268.316406 C 706.15625 265.082031 706.878906 261.867188 707.679688 258.667969 C 708.480469 255.46875 709.359375 252.292969 710.316406 249.136719 C 711.273438 245.984375 712.308594 242.851562 713.417969 239.75 C 714.53125 236.644531 715.714844 233.570312 716.976562 230.523438 C 718.238281 227.476562 719.574219 224.464844 720.984375 221.484375 C 722.394531 218.503906 723.875 215.558594 725.429688 212.652344 C 726.984375 209.746094 728.609375 206.875 730.304688 204.050781 C 732 201.222656 733.761719 198.4375 735.59375 195.695312 C 737.425781 192.953125 739.324219 190.257812 741.289062 187.609375 C 743.25 184.964844 745.28125 182.363281 747.371094 179.816406 C 749.460938 177.269531 751.617188 174.773438 753.828125 172.328125 C 756.042969 169.886719 758.316406 167.5 760.648438 165.167969 C 762.980469 162.835938 765.367188 160.5625 767.808594 158.351562 C 770.25 156.136719 772.746094 153.984375 775.296875 151.890625 C 777.84375 149.800781 780.441406 147.773438 783.089844 145.808594 C 785.738281 143.84375 788.433594 141.945312 791.175781 140.113281 C 793.914062 138.28125 796.699219 136.519531 799.527344 134.824219 C 802.355469 133.128906 805.222656 131.503906 808.132812 129.949219 C 811.039062 128.398438 813.984375 126.914062 816.964844 125.503906 C 819.945312 124.097656 822.957031 122.761719 826.003906 121.5 C 829.050781 120.238281 832.125 119.050781 835.226562 117.941406 C 838.332031 116.828125 841.460938 115.796875 844.617188 114.839844 C 847.773438 113.882812 850.949219 113.003906 854.148438 112.203125 C 857.34375 111.398438 860.558594 110.679688 863.792969 110.035156 C 867.027344 109.390625 870.273438 108.828125 873.535156 108.34375 C 876.796875 107.859375 880.070312 107.457031 883.351562 107.132812 C 886.628906 106.8125 889.917969 106.566406 893.210938 106.40625 C 896.503906 106.246094 899.796875 106.164062 903.09375 106.164062 C 906.390625 106.164062 909.6875 106.246094 912.980469 106.40625 C 916.273438 106.566406 919.558594 106.8125 922.839844 107.132812 C 926.121094 107.457031 929.394531 107.859375 932.65625 108.34375 C 935.914062 108.828125 939.164062 109.390625 942.398438 110.035156 C 945.628906 110.679688 948.847656 111.398438 952.042969 112.203125 C 955.242188 113.003906 958.417969 113.882812 961.574219 114.839844 C 964.730469 115.796875 967.859375 116.828125 970.960938 117.941406 C 974.066406 119.050781 977.140625 120.238281 980.1875 121.5 C 983.234375 122.761719 986.246094 124.097656 989.226562 125.503906 C 992.207031 126.914062 995.152344 128.398438 998.058594 129.949219 C 1000.96875 131.503906 1003.835938 133.128906 1006.664062 134.824219 C 1009.492188 136.519531 1012.273438 138.28125 1015.015625 140.113281 C 1017.757812 141.945312 1020.453125 143.84375 1023.101562 145.808594 C 1025.75 147.773438 1028.347656 149.800781 1030.894531 151.890625 C 1033.445312 153.984375 1035.941406 156.136719 1038.382812 158.351562 C 1040.824219 160.5625 1043.210938 162.835938 1045.542969 165.167969 C 1047.875 167.5 1050.148438 169.886719 1052.363281 172.328125 C 1054.574219 174.773438 1056.730469 177.269531 1058.820312 179.816406 C 1060.910156 182.363281 1062.9375 184.964844 1064.902344 187.609375 C 1066.867188 190.257812 1068.765625 192.953125 1070.597656 195.695312 C 1072.429688 198.4375 1074.191406 201.222656 1075.886719 204.050781 C 1077.582031 206.875 1079.207031 209.746094 1080.761719 212.652344 C 1082.316406 215.558594 1083.796875 218.503906 1085.207031 221.484375 C 1086.617188 224.464844 1087.953125 227.476562 1089.214844 230.523438 C 1090.472656 233.570312 1091.660156 236.644531 1092.769531 239.75 C 1093.882812 242.851562 1094.917969 245.984375 1095.875 249.136719 C 1096.832031 252.292969 1097.710938 255.46875 1098.511719 258.667969 C 1099.3125 261.867188 1100.035156 265.082031 1100.675781 268.316406 C 1101.320312 271.546875 1101.882812 274.796875 1102.367188 278.058594 C 1102.851562 281.316406 1103.253906 284.589844 1103.578125 287.871094 C 1103.902344 291.152344 1104.144531 294.4375 1104.304688 297.730469 C 1104.464844 301.023438 1104.546875 304.320312 1104.546875 307.617188 Z M 1104.546875 307.617188 " fill-opacity="1" fill-rule="nonzero"/></g><g clip-path="url(#921e37e497)"><path fill="#8a564a" d="M 1811.75 322.515625 L 1777.875 322.515625 C 1777.875 167.460938 1651.726562 41.308594 1496.671875 41.308594 C 1341.609375 41.308594 1215.460938 167.460938 1215.460938 322.515625 L 1181.585938 322.515625 C 1181.585938 148.78125 1322.933594 7.4375 1496.667969 7.4375 C 1670.40625 7.4375 1811.75 148.78125 1811.75 322.515625 Z M 1811.75 322.515625 " fill-opacity="1" fill-rule="nonzero"/></g><g clip-path="url(#ea6ab2c0f2)"><path fill="#8a564a" d="M 1697.859375 331.125 C 1697.859375 334.421875 1697.777344 337.714844 1697.613281 341.007812 C 1697.453125 344.300781 1697.210938 347.589844 1696.886719 350.871094 C 1696.5625 354.152344 1696.160156 357.421875 1695.675781 360.683594 C 1695.195312 363.945312 1694.628906 367.191406 1693.988281 370.425781 C 1693.34375 373.660156 1692.621094 376.875 1691.820312 380.074219 C 1691.019531 383.269531 1690.140625 386.445312 1689.183594 389.601562 C 1688.226562 392.757812 1687.191406 395.886719 1686.082031 398.992188 C 1684.972656 402.09375 1683.785156 405.171875 1682.523438 408.214844 C 1681.261719 411.261719 1679.925781 414.273438 1678.515625 417.253906 C 1677.105469 420.234375 1675.625 423.179688 1674.070312 426.085938 C 1672.515625 428.996094 1670.890625 431.863281 1669.195312 434.691406 C 1667.5 437.519531 1665.738281 440.304688 1663.90625 443.042969 C 1662.074219 445.785156 1660.175781 448.480469 1658.214844 451.128906 C 1656.25 453.777344 1654.222656 456.375 1652.128906 458.921875 C 1650.039062 461.472656 1647.886719 463.96875 1645.671875 466.410156 C 1643.457031 468.851562 1641.183594 471.242188 1638.855469 473.570312 C 1636.523438 475.902344 1634.136719 478.175781 1631.691406 480.390625 C 1629.25 482.605469 1626.753906 484.757812 1624.207031 486.847656 C 1621.65625 488.941406 1619.058594 490.96875 1616.410156 492.929688 C 1613.761719 494.894531 1611.066406 496.792969 1608.328125 498.625 C 1605.585938 500.457031 1602.800781 502.21875 1599.972656 503.914062 C 1597.144531 505.609375 1594.277344 507.234375 1591.371094 508.789062 C 1588.460938 510.34375 1585.519531 511.824219 1582.539062 513.234375 C 1579.558594 514.644531 1576.542969 515.980469 1573.496094 517.242188 C 1570.453125 518.503906 1567.375 519.6875 1564.273438 520.800781 C 1561.167969 521.910156 1558.039062 522.945312 1554.882812 523.902344 C 1551.730469 524.859375 1548.550781 525.738281 1545.355469 526.539062 C 1542.15625 527.339844 1538.941406 528.0625 1535.707031 528.703125 C 1532.472656 529.347656 1529.226562 529.910156 1525.964844 530.394531 C 1522.703125 530.878906 1519.433594 531.28125 1516.152344 531.605469 C 1512.871094 531.929688 1509.582031 532.171875 1506.289062 532.332031 C 1502.996094 532.496094 1499.703125 532.574219 1496.40625 532.574219 C 1493.109375 532.574219 1489.8125 532.496094 1486.519531 532.332031 C 1483.226562 532.171875 1479.941406 531.929688 1476.660156 531.605469 C 1473.378906 531.28125 1470.109375 530.878906 1466.847656 530.394531 C 1463.585938 529.910156 1460.335938 529.347656 1457.105469 528.703125 C 1453.871094 528.0625 1450.65625 527.339844 1447.457031 526.539062 C 1444.257812 525.738281 1441.082031 524.859375 1437.925781 523.902344 C 1434.773438 522.945312 1431.640625 521.910156 1428.539062 520.800781 C 1425.433594 519.6875 1422.359375 518.503906 1419.3125 517.242188 C 1416.265625 515.980469 1413.253906 514.644531 1410.273438 513.234375 C 1407.292969 511.824219 1404.347656 510.34375 1401.441406 508.789062 C 1398.535156 507.234375 1395.667969 505.609375 1392.839844 503.914062 C 1390.011719 502.21875 1387.226562 500.457031 1384.484375 498.625 C 1381.742188 496.792969 1379.046875 494.894531 1376.402344 492.929688 C 1373.753906 490.96875 1371.152344 488.941406 1368.605469 486.847656 C 1366.058594 484.757812 1363.5625 482.605469 1361.117188 480.390625 C 1358.675781 478.175781 1356.289062 475.902344 1353.957031 473.570312 C 1351.625 471.242188 1349.351562 468.851562 1347.140625 466.410156 C 1344.925781 463.96875 1342.773438 461.472656 1340.679688 458.921875 C 1338.589844 456.375 1336.5625 453.777344 1334.597656 451.128906 C 1332.632812 448.480469 1330.734375 445.785156 1328.902344 443.042969 C 1327.074219 440.304688 1325.308594 437.519531 1323.613281 434.691406 C 1321.917969 431.863281 1320.292969 428.996094 1318.742188 426.085938 C 1317.1875 423.179688 1315.703125 420.234375 1314.296875 417.253906 C 1312.886719 414.273438 1311.550781 411.261719 1310.289062 408.214844 C 1309.027344 405.171875 1307.839844 402.09375 1306.730469 398.992188 C 1305.617188 395.886719 1304.585938 392.757812 1303.628906 389.601562 C 1302.671875 386.445312 1301.792969 383.269531 1300.992188 380.074219 C 1300.191406 376.875 1299.46875 373.660156 1298.824219 370.425781 C 1298.179688 367.191406 1297.617188 363.945312 1297.132812 360.683594 C 1296.648438 357.421875 1296.246094 354.152344 1295.921875 350.871094 C 1295.601562 347.589844 1295.359375 344.300781 1295.195312 341.007812 C 1295.035156 337.714844 1294.953125 334.421875 1294.953125 331.125 C 1294.953125 327.828125 1295.035156 324.53125 1295.195312 321.238281 C 1295.359375 317.945312 1295.601562 314.660156 1295.921875 311.378906 C 1296.246094 308.097656 1296.648438 304.824219 1297.132812 301.5625 C 1297.617188 298.304688 1298.179688 295.054688 1298.824219 291.820312 C 1299.46875 288.589844 1300.191406 285.371094 1300.992188 282.175781 C 1301.792969 278.976562 1302.671875 275.800781 1303.628906 272.644531 C 1304.585938 269.488281 1305.617188 266.359375 1306.730469 263.257812 C 1307.839844 260.152344 1309.027344 257.078125 1310.289062 254.03125 C 1311.550781 250.984375 1312.886719 247.972656 1314.296875 244.992188 C 1315.703125 242.011719 1317.1875 239.066406 1318.742188 236.160156 C 1320.292969 233.253906 1321.917969 230.382812 1323.613281 227.554688 C 1325.308594 224.730469 1327.074219 221.945312 1328.902344 219.203125 C 1330.734375 216.460938 1332.632812 213.765625 1334.597656 211.117188 C 1336.5625 208.46875 1338.589844 205.871094 1340.679688 203.324219 C 1342.773438 200.773438 1344.925781 198.28125 1347.140625 195.835938 C 1349.351562 193.394531 1351.625 191.007812 1353.957031 188.675781 C 1356.289062 186.34375 1358.675781 184.070312 1361.117188 181.859375 C 1363.5625 179.644531 1366.058594 177.492188 1368.605469 175.398438 C 1371.152344 173.308594 1373.753906 171.28125 1376.402344 169.316406 C 1379.046875 167.351562 1381.742188 165.453125 1384.484375 163.621094 C 1387.226562 161.789062 1390.011719 160.027344 1392.839844 158.332031 C 1395.667969 156.636719 1398.535156 155.011719 1401.441406 153.457031 C 1404.347656 151.90625 1407.292969 150.421875 1410.273438 149.011719 C 1413.253906 147.601562 1416.265625 146.269531 1419.3125 145.007812 C 1422.359375 143.746094 1425.433594 142.558594 1428.539062 141.449219 C 1431.640625 140.335938 1434.773438 139.304688 1437.925781 138.347656 C 1441.082031 137.390625 1444.257812 136.511719 1447.457031 135.707031 C 1450.65625 134.90625 1453.871094 134.1875 1457.105469 133.542969 C 1460.335938 132.898438 1463.585938 132.335938 1466.847656 131.851562 C 1470.109375 131.367188 1473.378906 130.964844 1476.660156 130.640625 C 1479.941406 130.320312 1483.226562 130.074219 1486.519531 129.914062 C 1489.8125 129.753906 1493.109375 129.671875 1496.40625 129.671875 C 1499.703125 129.671875 1502.996094 129.753906 1506.289062 129.914062 C 1509.582031 130.074219 1512.871094 130.320312 1516.152344 130.640625 C 1519.433594 130.964844 1522.703125 131.367188 1525.964844 131.851562 C 1529.226562 132.335938 1532.472656 132.898438 1535.707031 133.542969 C 1538.941406 134.1875 1542.15625 134.90625 1545.355469 135.707031 C 1548.550781 136.511719 1551.730469 137.390625 1554.882812 138.347656 C 1558.039062 139.304688 1561.167969 140.335938 1564.273438 141.449219 C 1567.375 142.558594 1570.453125 143.746094 1573.496094 145.007812 C 1576.542969 146.269531 1579.558594 147.601562 1582.539062 149.011719 C 1585.519531 150.421875 1588.460938 151.90625 1591.371094 153.457031 C 1594.277344 155.011719 1597.144531 156.636719 1599.972656 158.332031 C 1602.800781 160.027344 1605.585938 161.789062 1608.328125 163.621094 C 1611.066406 165.453125 1613.761719 167.351562 1616.410156 169.316406 C 1619.058594 171.28125 1621.65625 173.308594 1624.207031 175.398438 C 1626.753906 177.492188 1629.25 179.644531 1631.691406 181.859375 C 1634.136719 184.070312 1636.523438 186.34375 1638.855469 188.675781 C 1641.183594 191.007812 1643.457031 193.394531 1645.671875 195.835938 C 1647.886719 198.28125 1650.039062 200.773438 1652.128906 203.324219 C 1654.222656 205.871094 1656.25 208.46875 1658.214844 211.117188 C 1660.175781 213.765625 1662.074219 216.460938 1663.90625 219.203125 C 1665.738281 221.945312 1667.5 224.730469 1669.195312 227.554688 C 1670.890625 230.382812 1672.515625 233.253906 1674.070312 236.160156 C 1675.625 239.066406 1677.105469 242.011719 1678.515625 244.992188 C 1679.925781 247.972656 1681.261719 250.984375 1682.523438 254.03125 C 1683.785156 257.078125 1684.972656 260.152344 1686.082031 263.257812 C 1687.191406 266.359375 1688.226562 269.488281 1689.183594 272.644531 C 1690.140625 275.800781 1691.019531 278.976562 1691.820312 282.175781 C 1692.621094 285.371094 1693.34375 288.589844 1693.988281 291.820312 C 1694.628906 295.054688 1695.195312 298.304688 1695.675781 301.5625 C 1696.160156 304.824219 1696.5625 308.097656 1696.886719 311.378906 C 1697.210938 314.660156 1697.453125 317.945312 1697.613281 321.238281 C 1697.777344 324.53125 1697.859375 327.828125 1697.859375 331.125 Z M 1697.859375 331.125 " fill-opacity="1" fill-rule="nonzero"/></g><g clip-path="url(#154d07887e)"><g clip-path="url(#41d06cd9b5)"><path fill="#8ebe53" d="M 528.246094 316.613281 L 688.113281 316.613281 L 688.113281 424.101562 L 528.246094 424.101562 Z M 528.246094 316.613281 " fill-opacity="1" fill-rule="nonzero"/></g></g><g clip-path="url(#6478c498ec)"><g clip-path="url(#d6d815d7f8)"><path fill="#8a564a" d="M 1714.34375 321.257812 L 1874.207031 321.257812 L 1874.207031 428.75 L 1714.34375 428.75 Z M 1714.34375 321.257812 " fill-opacity="1" fill-rule="nonzero"/></g></g><g fill="#ffffff" fill-opacity="1"><g transform="translate(285.318935, 362.457703)"><g><path d="M 6.503906 0 L 55.066406 0 L 55.066406 -13.347656 L 40.261719 -13.347656 L 40.261719 -60 C 40.261719 -68.636719 35.550781 -74.582031 23.214844 -74.582031 L 7.625 -74.582031 L 7.625 -61.234375 L 23.214844 -61.234375 L 23.214844 -13.347656 L 6.503906 -13.347656 Z M 6.503906 0 "/></g></g></g><g fill="#ffffff" fill-opacity="1"><g transform="translate(1459.489551, 363.055177)"><g><path d="M 4.375 -24.226562 C 4.597656 -7.738281 16.152344 1.90625 37.011719 1.90625 C 60.226562 1.90625 69.425781 -9.535156 69.425781 -23.777344 C 69.425781 -40.601562 55.964844 -44.863281 47.667969 -44.863281 C 43.742188 -44.863281 41.5 -44.527344 39.816406 -44.191406 L 64.9375 -61.238281 L 64.9375 -74.585938 L 7.515625 -74.585938 L 7.515625 -61.238281 L 45.761719 -61.238281 L 19.964844 -43.742188 L 26.355469 -33.3125 C 29.945312 -35.441406 33.3125 -36.789062 38.582031 -36.789062 C 46.320312 -36.789062 51.59375 -32.1875 51.59375 -24.226562 C 51.59375 -15.476562 46.207031 -10.992188 37.011719 -10.992188 C 27.925781 -10.992188 22.09375 -15.589844 21.644531 -24.226562 Z M 4.375 -24.226562 "/></g></g></g><g fill="#ffffff" fill-opacity="1"><g transform="translate(864.380274, 339.547568)"><g><path d="M 7.066406 0 L 71.78125 0 L 71.78125 -13.347656 L 30.058594 -13.347656 L 47.21875 -25.460938 C 64.265625 -36.339844 70.324219 -44.636719 70.324219 -54.621094 C 70.324219 -66.398438 63.144531 -76.492188 41.273438 -76.492188 C 15.253906 -76.492188 6.617188 -60.226562 6.28125 -44.75 L 23.554688 -44.75 C 23.777344 -55.179688 27.925781 -63.480469 40.714844 -63.480469 C 49.460938 -63.480469 52.9375 -58.882812 52.9375 -53.386719 C 52.9375 -48.5625 50.917969 -44.75 44.976562 -40.488281 L 7.066406 -13.347656 Z M 7.066406 0 "/></g></g></g></svg>